<svg xmlns="http://www.w3.org/2000/svg" xmlns:xlink="http://www.w3.org/1999/xlink" width="1223" zoomAndPan="magnify" viewBox="0 0 917.25 225" height="300" preserveAspectRatio="xMidYMid meet" version="1.0"><defs><g/><clipPath id="ba732a6cbf"><path d="M 0 0.09375 L 916.5 0.09375 L 916.5 224.90625 L 0 224.90625 Z M 0 0.09375 " clip-rule="nonzero"/></clipPath><clipPath id="65cd83b41f"><path d="M 306.734375 28.300781 L 329.316406 28.300781 L 329.316406 40.449219 L 306.734375 40.449219 Z M 306.734375 28.300781 " clip-rule="nonzero"/></clipPath><clipPath id="a2cb92c0fd"><path d="M 534.863281 75.859375 L 559.671875 75.859375 L 559.671875 132.597656 L 534.863281 132.597656 Z M 534.863281 75.859375 " clip-rule="nonzero"/></clipPath></defs><g clip-path="url(#ba732a6cbf)"><path fill="#ffffff" d="M 0 0.09375 L 916.5 0.09375 L 916.5 224.90625 L 0 224.90625 Z M 0 0.09375 " fill-opacity="1" fill-rule="nonzero"/><path fill="#ffffff" d="M 0 0.09375 L 916.5 0.09375 L 916.5 224.90625 L 0 224.90625 Z M 0 0.09375 " fill-opacity="1" fill-rule="nonzero"/></g><g clip-path="url(#65cd83b41f)"><path fill="#927a63" d="M 306.734375 28.300781 L 329.320312 28.300781 L 329.320312 40.449219 L 306.734375 40.449219 Z M 306.734375 28.300781 " fill-opacity="1" fill-rule="nonzero"/></g><g fill="#201f25" fill-opacity="1"><g transform="translate(137.095709, 97.165299)"><g><path d="M 3.375 0 L 3.375 -39.5 L 18.671875 -39.5 C 21.210938 -39.5 23.429688 -39.109375 25.328125 -38.328125 C 27.222656 -37.554688 28.703125 -36.320312 29.765625 -34.625 C 30.835938 -32.9375 31.375 -30.710938 31.375 -27.953125 C 31.375 -25.191406 30.835938 -22.960938 29.765625 -21.265625 C 28.703125 -19.566406 27.222656 -18.332031 25.328125 -17.5625 C 23.429688 -16.789062 21.210938 -16.40625 18.671875 -16.40625 L 7.1875 -16.40625 L 7.1875 0 Z M 7.1875 -19.546875 L 18.5625 -19.546875 C 21.320312 -19.546875 23.507812 -20.207031 25.125 -21.53125 C 26.75 -22.863281 27.5625 -25.003906 27.5625 -27.953125 C 27.5625 -30.898438 26.75 -33.023438 25.125 -34.328125 C 23.507812 -35.628906 21.320312 -36.28125 18.5625 -36.28125 L 7.1875 -36.28125 Z M 7.1875 -19.546875 "/></g></g></g><g fill="#201f25" fill-opacity="1"><g transform="translate(169.630635, 97.165299)"><g><path d="M 2.765625 0 L 2.765625 -28.390625 L 6.1875 -28.390625 L 6.1875 -22.640625 L 6.296875 -22.640625 C 6.921875 -24.453125 7.96875 -25.925781 9.4375 -27.0625 C 10.914062 -28.207031 12.59375 -28.78125 14.46875 -28.78125 C 15.207031 -28.78125 15.910156 -28.722656 16.578125 -28.609375 L 16.578125 -25.578125 L 16.453125 -25.578125 C 14.722656 -25.867188 13.078125 -25.671875 11.515625 -24.984375 C 9.953125 -24.304688 8.671875 -23.238281 7.671875 -21.78125 C 6.679688 -20.332031 6.1875 -18.578125 6.1875 -16.515625 L 6.1875 0 Z M 2.765625 0 "/></g></g></g><g fill="#201f25" fill-opacity="1"><g transform="translate(187.085706, 97.165299)"><g><path d="M 14.796875 0.65625 C 12.003906 0.65625 9.601562 0.0390625 7.59375 -1.1875 C 5.582031 -2.414062 4.035156 -4.144531 2.953125 -6.375 C 1.867188 -8.601562 1.328125 -11.171875 1.328125 -14.078125 C 1.328125 -17.023438 1.867188 -19.601562 2.953125 -21.8125 C 4.035156 -24.019531 5.582031 -25.75 7.59375 -27 C 9.601562 -28.257812 12.003906 -28.890625 14.796875 -28.890625 C 17.597656 -28.890625 20.007812 -28.257812 22.03125 -27 C 24.0625 -25.75 25.617188 -24.019531 26.703125 -21.8125 C 27.785156 -19.601562 28.328125 -17.023438 28.328125 -14.078125 C 28.328125 -11.171875 27.785156 -8.601562 26.703125 -6.375 C 25.617188 -4.144531 24.0625 -2.414062 22.03125 -1.1875 C 20.007812 0.0390625 17.597656 0.65625 14.796875 0.65625 Z M 14.796875 -2.046875 C 18.003906 -2.046875 20.484375 -3.160156 22.234375 -5.390625 C 23.984375 -7.617188 24.859375 -10.515625 24.859375 -14.078125 C 24.859375 -17.648438 23.984375 -20.550781 22.234375 -22.78125 C 20.484375 -25.007812 18.003906 -26.125 14.796875 -26.125 C 11.597656 -26.125 9.125 -25.007812 7.375 -22.78125 C 5.625 -20.550781 4.75 -17.648438 4.75 -14.078125 C 4.75 -10.515625 5.625 -7.617188 7.375 -5.390625 C 9.125 -3.160156 11.597656 -2.046875 14.796875 -2.046875 Z M 14.796875 -2.046875 "/></g></g></g><g fill="#201f25" fill-opacity="1"><g transform="translate(216.693041, 97.165299)"><g><path d="M 13.484375 0.65625 C 11.191406 0.65625 9.125 0.0664062 7.28125 -1.109375 C 5.445312 -2.285156 3.992188 -3.96875 2.921875 -6.15625 C 1.859375 -8.34375 1.328125 -10.984375 1.328125 -14.078125 C 1.328125 -17.171875 1.859375 -19.820312 2.921875 -22.03125 C 3.992188 -24.25 5.445312 -25.945312 7.28125 -27.125 C 9.125 -28.300781 11.191406 -28.890625 13.484375 -28.890625 C 16.097656 -28.890625 18.238281 -28.21875 19.90625 -26.875 C 21.582031 -25.53125 22.789062 -23.9375 23.53125 -22.09375 L 23.640625 -22.09375 L 23.640625 -39.5 L 27.125 -39.5 L 27.125 0 L 23.640625 0 L 23.640625 -6.015625 L 23.53125 -6.015625 C 23.050781 -4.878906 22.347656 -3.800781 21.421875 -2.78125 C 20.503906 -1.769531 19.382812 -0.941406 18.0625 -0.296875 C 16.738281 0.335938 15.210938 0.65625 13.484375 0.65625 Z M 14.359375 -2.046875 C 16.054688 -2.046875 17.59375 -2.523438 18.96875 -3.484375 C 20.351562 -4.441406 21.46875 -5.820312 22.3125 -7.625 C 23.15625 -9.425781 23.578125 -11.578125 23.578125 -14.078125 C 23.578125 -16.617188 23.15625 -18.78125 22.3125 -20.5625 C 21.46875 -22.351562 20.351562 -23.726562 18.96875 -24.6875 C 17.59375 -25.644531 16.054688 -26.125 14.359375 -26.125 C 11.554688 -26.125 9.253906 -25.070312 7.453125 -22.96875 C 5.648438 -20.875 4.75 -17.910156 4.75 -14.078125 C 4.75 -10.285156 5.648438 -7.332031 7.453125 -5.21875 C 9.253906 -3.101562 11.554688 -2.046875 14.359375 -2.046875 Z M 14.359375 -2.046875 "/></g></g></g><g fill="#201f25" fill-opacity="1"><g transform="translate(246.521326, 97.165299)"><g><path d="M 11.21875 0.5 C 9.664062 0.5 8.234375 0.171875 6.921875 -0.484375 C 5.617188 -1.148438 4.5625 -2.144531 3.75 -3.46875 C 2.945312 -4.800781 2.546875 -6.425781 2.546875 -8.34375 L 2.546875 -28.390625 L 6.015625 -28.390625 L 6.015625 -9.890625 C 6.015625 -8.484375 6.207031 -7.207031 6.59375 -6.0625 C 6.988281 -4.925781 7.671875 -4.023438 8.640625 -3.359375 C 9.617188 -2.703125 11.007812 -2.375 12.8125 -2.375 C 14.6875 -2.375 16.273438 -2.75 17.578125 -3.5 C 18.890625 -4.257812 19.894531 -5.203125 20.59375 -6.328125 C 21.300781 -7.453125 21.65625 -8.546875 21.65625 -9.609375 L 21.65625 -28.390625 L 25.125 -28.390625 L 25.125 0 L 21.65625 0 L 21.65625 -4.859375 L 21.546875 -4.859375 C 20.992188 -3.972656 20.273438 -3.125 19.390625 -2.3125 C 18.503906 -1.507812 17.394531 -0.835938 16.0625 -0.296875 C 14.738281 0.234375 13.125 0.5 11.21875 0.5 Z M 11.21875 0.5 "/></g></g></g><g fill="#201f25" fill-opacity="1"><g transform="translate(274.36106, 97.165299)"><g><path d="M 14.796875 0.65625 C 12.109375 0.65625 9.75 0.0390625 7.71875 -1.1875 C 5.695312 -2.414062 4.125 -4.132812 3 -6.34375 C 1.882812 -8.5625 1.328125 -11.140625 1.328125 -14.078125 C 1.328125 -17.023438 1.882812 -19.613281 3 -21.84375 C 4.125 -24.070312 5.695312 -25.800781 7.71875 -27.03125 C 9.75 -28.269531 12.09375 -28.890625 14.75 -28.890625 C 17.101562 -28.890625 19.132812 -28.425781 20.84375 -27.5 C 22.5625 -26.582031 23.9375 -25.359375 24.96875 -23.828125 C 26 -22.304688 26.625 -20.625 26.84375 -18.78125 L 23.421875 -18.78125 C 23.347656 -19.769531 22.988281 -20.835938 22.34375 -21.984375 C 21.695312 -23.128906 20.753906 -24.101562 19.515625 -24.90625 C 18.285156 -25.71875 16.710938 -26.125 14.796875 -26.125 C 12.628906 -26.125 10.796875 -25.578125 9.296875 -24.484375 C 7.804688 -23.398438 6.675781 -21.945312 5.90625 -20.125 C 5.132812 -18.3125 4.75 -16.296875 4.75 -14.078125 C 4.75 -11.910156 5.132812 -9.914062 5.90625 -8.09375 C 6.675781 -6.269531 7.804688 -4.804688 9.296875 -3.703125 C 10.796875 -2.597656 12.628906 -2.046875 14.796875 -2.046875 C 16.710938 -2.046875 18.296875 -2.445312 19.546875 -3.25 C 20.804688 -4.0625 21.75 -5.054688 22.375 -6.234375 C 23 -7.421875 23.347656 -8.546875 23.421875 -9.609375 L 26.84375 -9.609375 C 26.726562 -7.734375 26.15625 -6.019531 25.125 -4.46875 C 24.09375 -2.925781 22.691406 -1.6875 20.921875 -0.75 C 19.160156 0.1875 17.117188 0.65625 14.796875 0.65625 Z M 14.796875 0.65625 "/></g></g></g><g fill="#201f25" fill-opacity="1"><g transform="translate(302.145553, 97.165299)"><g><path d="M 10.765625 0.28125 C 8.960938 0.28125 7.546875 -0.28125 6.515625 -1.40625 C 5.484375 -2.53125 4.96875 -4.566406 4.96875 -7.515625 L 4.96875 -25.625 L 0.890625 -25.625 L 0.890625 -28.390625 L 4.96875 -28.390625 L 4.96875 -37.234375 L 8.453125 -37.234375 L 8.453125 -28.390625 L 14.359375 -28.390625 L 14.359375 -25.625 L 8.453125 -25.625 L 8.453125 -8.015625 C 8.453125 -6.796875 8.550781 -5.742188 8.75 -4.859375 C 8.957031 -3.972656 9.484375 -3.335938 10.328125 -2.953125 C 11.171875 -2.566406 12.515625 -2.539062 14.359375 -2.875 L 14.359375 -0.171875 C 13.773438 -0.015625 13.210938 0.0976562 12.671875 0.171875 C 12.140625 0.242188 11.503906 0.28125 10.765625 0.28125 Z M 10.765625 0.28125 "/></g></g></g><g fill="#201f25" fill-opacity="1"><g transform="translate(317.998737, 97.165299)"><g><path d="M 13.59375 0.65625 C 10.75 0.65625 8.40625 0.234375 6.5625 -0.609375 C 4.726562 -1.453125 3.359375 -2.609375 2.453125 -4.078125 C 1.554688 -5.554688 1.050781 -7.195312 0.9375 -9 L 4.25 -9 C 4.394531 -6.90625 5.238281 -5.203125 6.78125 -3.890625 C 8.332031 -2.585938 10.566406 -1.9375 13.484375 -1.9375 C 15.546875 -1.9375 17.273438 -2.429688 18.671875 -3.421875 C 20.066406 -4.421875 20.765625 -5.691406 20.765625 -7.234375 C 20.765625 -8.785156 20.359375 -9.9375 19.546875 -10.6875 C 18.742188 -11.4375 17.648438 -12.015625 16.265625 -12.421875 C 14.878906 -12.828125 13.359375 -13.234375 11.703125 -13.640625 C 9.867188 -14.117188 8.203125 -14.625 6.703125 -15.15625 C 5.210938 -15.695312 4.023438 -16.441406 3.140625 -17.390625 C 2.265625 -18.347656 1.828125 -19.660156 1.828125 -21.328125 C 1.828125 -23.566406 2.742188 -25.382812 4.578125 -26.78125 C 6.421875 -28.1875 8.984375 -28.890625 12.265625 -28.890625 C 14.765625 -28.890625 16.785156 -28.484375 18.328125 -27.671875 C 19.878906 -26.859375 21.050781 -25.816406 21.84375 -24.546875 C 22.632812 -23.273438 23.101562 -21.941406 23.25 -20.546875 L 19.9375 -20.546875 C 19.675781 -22.015625 18.957031 -23.335938 17.78125 -24.515625 C 16.601562 -25.703125 14.78125 -26.296875 12.3125 -26.296875 C 11.132812 -26.296875 10.003906 -26.128906 8.921875 -25.796875 C 7.835938 -25.460938 6.960938 -24.9375 6.296875 -24.21875 C 5.628906 -23.5 5.296875 -22.585938 5.296875 -21.484375 C 5.296875 -20.378906 5.664062 -19.515625 6.40625 -18.890625 C 7.144531 -18.265625 8.164062 -17.765625 9.46875 -17.390625 C 10.78125 -17.023438 12.265625 -16.640625 13.921875 -16.234375 C 15.910156 -15.753906 17.675781 -15.210938 19.21875 -14.609375 C 20.769531 -14.003906 21.984375 -13.164062 22.859375 -12.09375 C 23.742188 -11.03125 24.1875 -9.539062 24.1875 -7.625 C 24.1875 -5.113281 23.238281 -3.101562 21.34375 -1.59375 C 19.445312 -0.09375 16.863281 0.65625 13.59375 0.65625 Z M 13.59375 0.65625 "/></g></g></g><g fill="#a79a88" fill-opacity="1"><g transform="translate(137.095709, 143.159449)"><g><path d="M 20.109375 0.765625 C 16.242188 0.765625 12.925781 -0.101562 10.15625 -1.84375 C 7.394531 -3.59375 5.28125 -6.015625 3.8125 -9.109375 C 2.34375 -12.203125 1.609375 -15.757812 1.609375 -19.78125 C 1.609375 -23.75 2.34375 -27.269531 3.8125 -30.34375 C 5.28125 -33.425781 7.40625 -35.847656 10.1875 -37.609375 C 12.96875 -39.378906 16.3125 -40.265625 20.21875 -40.265625 C 23.34375 -40.265625 26.046875 -39.675781 28.328125 -38.5 C 30.617188 -37.320312 32.441406 -35.679688 33.796875 -33.578125 C 35.160156 -31.484375 36.007812 -29.070312 36.34375 -26.34375 L 30.484375 -26.34375 C 30.078125 -28.925781 29 -31.082031 27.25 -32.8125 C 25.507812 -34.539062 23.09375 -35.40625 20 -35.40625 C 17.15625 -35.40625 14.800781 -34.734375 12.9375 -33.390625 C 11.082031 -32.046875 9.703125 -30.191406 8.796875 -27.828125 C 7.898438 -25.472656 7.453125 -22.789062 7.453125 -19.78125 C 7.453125 -16.71875 7.910156 -14 8.828125 -11.625 C 9.753906 -9.25 11.132812 -7.398438 12.96875 -6.078125 C 14.8125 -4.753906 17.117188 -4.09375 19.890625 -4.09375 C 22.097656 -4.09375 23.960938 -4.550781 25.484375 -5.46875 C 27.015625 -6.382812 28.222656 -7.609375 29.109375 -9.140625 C 29.992188 -10.671875 30.566406 -12.351562 30.828125 -14.1875 L 36.671875 -14.1875 C 36.335938 -11.28125 35.472656 -8.691406 34.078125 -6.421875 C 32.679688 -4.160156 30.800781 -2.394531 28.4375 -1.125 C 26.082031 0.132812 23.304688 0.765625 20.109375 0.765625 Z M 20.109375 0.765625 "/></g></g></g><g fill="#a79a88" fill-opacity="1"><g transform="translate(174.984942, 143.159449)"><g><path d="M 10.28125 0.765625 C 7.4375 0.765625 5.195312 0.0390625 3.5625 -1.40625 C 1.925781 -2.863281 1.109375 -4.75 1.109375 -7.0625 C 1.109375 -9.789062 2.019531 -11.851562 3.84375 -13.25 C 5.664062 -14.65625 8.304688 -15.648438 11.765625 -16.234375 C 13.085938 -16.460938 14.363281 -16.691406 15.59375 -16.921875 C 16.832031 -17.160156 17.859375 -17.554688 18.671875 -18.109375 C 19.484375 -18.671875 19.890625 -19.554688 19.890625 -20.765625 C 19.890625 -22.273438 19.378906 -23.394531 18.359375 -24.125 C 17.347656 -24.863281 16 -25.234375 14.3125 -25.234375 C 12.0625 -25.234375 10.363281 -24.753906 9.21875 -23.796875 C 8.082031 -22.847656 7.441406 -21.507812 7.296875 -19.78125 L 2.3125 -19.78125 C 2.425781 -21.363281 2.878906 -22.851562 3.671875 -24.25 C 4.460938 -25.644531 5.722656 -26.785156 7.453125 -27.671875 C 9.179688 -28.554688 11.46875 -29 14.3125 -29 C 16.519531 -29 18.429688 -28.664062 20.046875 -28 C 21.671875 -27.34375 22.921875 -26.257812 23.796875 -24.75 C 24.679688 -23.238281 25.125 -21.191406 25.125 -18.609375 L 25.125 -4.96875 C 25.125 -4.34375 25.179688 -3.753906 25.296875 -3.203125 C 25.410156 -2.648438 25.664062 -2.234375 26.0625 -1.953125 C 26.46875 -1.679688 27.132812 -1.617188 28.0625 -1.765625 L 28.0625 0.0625 C 26.914062 0.425781 25.753906 0.609375 24.578125 0.609375 C 22.878906 0.609375 21.695312 0.210938 21.03125 -0.578125 C 20.375 -1.367188 20.046875 -2.445312 20.046875 -3.8125 L 19.9375 -3.8125 C 18.90625 -2.34375 17.550781 -1.210938 15.875 -0.421875 C 14.195312 0.367188 12.332031 0.765625 10.28125 0.765625 Z M 12.046875 -3.03125 C 13.847656 -3.03125 15.316406 -3.363281 16.453125 -4.03125 C 17.597656 -4.695312 18.457031 -5.535156 19.03125 -6.546875 C 19.601562 -7.554688 19.890625 -8.539062 19.890625 -9.5 L 19.890625 -15.40625 C 19.410156 -14.851562 18.597656 -14.429688 17.453125 -14.140625 C 16.304688 -13.847656 14.960938 -13.585938 13.421875 -13.359375 C 11.171875 -12.992188 9.429688 -12.394531 8.203125 -11.5625 C 6.972656 -10.738281 6.359375 -9.535156 6.359375 -7.953125 C 6.359375 -6.296875 6.851562 -5.0625 7.84375 -4.25 C 8.832031 -3.4375 10.234375 -3.03125 12.046875 -3.03125 Z M 12.046875 -3.03125 "/></g></g></g><g fill="#a79a88" fill-opacity="1"><g transform="translate(203.816111, 143.159449)"><g><path d="M 11.4375 0.328125 C 9.1875 0.328125 7.523438 -0.320312 6.453125 -1.625 C 5.390625 -2.9375 4.859375 -5.101562 4.859375 -8.125 L 4.859375 -24.296875 L 0.828125 -24.296875 L 0.828125 -28.328125 L 4.859375 -28.328125 L 4.859375 -36.890625 L 10.109375 -36.890625 L 10.109375 -28.328125 L 15.6875 -28.328125 L 15.6875 -24.296875 L 10.109375 -24.296875 L 10.109375 -8.671875 C 10.109375 -7.523438 10.226562 -6.570312 10.46875 -5.8125 C 10.707031 -5.0625 11.222656 -4.546875 12.015625 -4.265625 C 12.804688 -3.992188 14.03125 -3.972656 15.6875 -4.203125 L 15.6875 -0.171875 C 15.019531 -0.015625 14.375 0.101562 13.75 0.1875 C 13.125 0.28125 12.351562 0.328125 11.4375 0.328125 Z M 11.4375 0.328125 "/></g></g></g><g fill="#a79a88" fill-opacity="1"><g transform="translate(220.82761, 143.159449)"><g><path d="M 10.28125 0.765625 C 7.4375 0.765625 5.195312 0.0390625 3.5625 -1.40625 C 1.925781 -2.863281 1.109375 -4.75 1.109375 -7.0625 C 1.109375 -9.789062 2.019531 -11.851562 3.84375 -13.25 C 5.664062 -14.65625 8.304688 -15.648438 11.765625 -16.234375 C 13.085938 -16.460938 14.363281 -16.691406 15.59375 -16.921875 C 16.832031 -17.160156 17.859375 -17.554688 18.671875 -18.109375 C 19.484375 -18.671875 19.890625 -19.554688 19.890625 -20.765625 C 19.890625 -22.273438 19.378906 -23.394531 18.359375 -24.125 C 17.347656 -24.863281 16 -25.234375 14.3125 -25.234375 C 12.0625 -25.234375 10.363281 -24.753906 9.21875 -23.796875 C 8.082031 -22.847656 7.441406 -21.507812 7.296875 -19.78125 L 2.3125 -19.78125 C 2.425781 -21.363281 2.878906 -22.851562 3.671875 -24.25 C 4.460938 -25.644531 5.722656 -26.785156 7.453125 -27.671875 C 9.179688 -28.554688 11.46875 -29 14.3125 -29 C 16.519531 -29 18.429688 -28.664062 20.046875 -28 C 21.671875 -27.34375 22.921875 -26.257812 23.796875 -24.75 C 24.679688 -23.238281 25.125 -21.191406 25.125 -18.609375 L 25.125 -4.96875 C 25.125 -4.34375 25.179688 -3.753906 25.296875 -3.203125 C 25.410156 -2.648438 25.664062 -2.234375 26.0625 -1.953125 C 26.46875 -1.679688 27.132812 -1.617188 28.0625 -1.765625 L 28.0625 0.0625 C 26.914062 0.425781 25.753906 0.609375 24.578125 0.609375 C 22.878906 0.609375 21.695312 0.210938 21.03125 -0.578125 C 20.375 -1.367188 20.046875 -2.445312 20.046875 -3.8125 L 19.9375 -3.8125 C 18.90625 -2.34375 17.550781 -1.210938 15.875 -0.421875 C 14.195312 0.367188 12.332031 0.765625 10.28125 0.765625 Z M 12.046875 -3.03125 C 13.847656 -3.03125 15.316406 -3.363281 16.453125 -4.03125 C 17.597656 -4.695312 18.457031 -5.535156 19.03125 -6.546875 C 19.601562 -7.554688 19.890625 -8.539062 19.890625 -9.5 L 19.890625 -15.40625 C 19.410156 -14.851562 18.597656 -14.429688 17.453125 -14.140625 C 16.304688 -13.847656 14.960938 -13.585938 13.421875 -13.359375 C 11.171875 -12.992188 9.429688 -12.394531 8.203125 -11.5625 C 6.972656 -10.738281 6.359375 -9.535156 6.359375 -7.953125 C 6.359375 -6.296875 6.851562 -5.0625 7.84375 -4.25 C 8.832031 -3.4375 10.234375 -3.03125 12.046875 -3.03125 Z M 12.046875 -3.03125 "/></g></g></g><g fill="#a79a88" fill-opacity="1"><g transform="translate(249.658779, 143.159449)"><g><path d="M 2.65625 0 L 2.65625 -39.5 L 7.90625 -39.5 L 7.90625 0 Z M 2.65625 0 "/></g></g></g><g fill="#a79a88" fill-opacity="1"><g transform="translate(260.208117, 143.159449)"><g><path d="M 15.25 0.765625 C 12.332031 0.765625 9.816406 0.132812 7.703125 -1.125 C 5.585938 -2.394531 3.96875 -4.15625 2.84375 -6.40625 C 1.71875 -8.65625 1.15625 -11.234375 1.15625 -14.140625 C 1.15625 -17.085938 1.71875 -19.671875 2.84375 -21.890625 C 3.96875 -24.117188 5.585938 -25.859375 7.703125 -27.109375 C 9.816406 -28.367188 12.332031 -29 15.25 -29 C 18.15625 -29 20.65625 -28.367188 22.75 -27.109375 C 24.851562 -25.859375 26.46875 -24.117188 27.59375 -21.890625 C 28.71875 -19.671875 29.28125 -17.085938 29.28125 -14.140625 C 29.28125 -11.234375 28.71875 -8.65625 27.59375 -6.40625 C 26.46875 -4.15625 24.851562 -2.394531 22.75 -1.125 C 20.65625 0.132812 18.15625 0.765625 15.25 0.765625 Z M 15.25 -3.3125 C 18.007812 -3.3125 20.160156 -4.296875 21.703125 -6.265625 C 23.253906 -8.234375 24.03125 -10.859375 24.03125 -14.140625 C 24.03125 -17.421875 23.253906 -20.046875 21.703125 -22.015625 C 20.160156 -23.984375 18.007812 -24.96875 15.25 -24.96875 C 12.445312 -24.96875 10.269531 -23.984375 8.71875 -22.015625 C 7.175781 -20.046875 6.40625 -17.421875 6.40625 -14.140625 C 6.40625 -10.859375 7.175781 -8.234375 8.71875 -6.265625 C 10.269531 -4.296875 12.445312 -3.3125 15.25 -3.3125 Z M 15.25 -3.3125 "/></g></g></g><g fill="#a79a88" fill-opacity="1"><g transform="translate(290.641018, 143.159449)"><g><path d="M 14.75 9.609375 C 12.0625 9.609375 9.804688 9.191406 7.984375 8.359375 C 6.160156 7.535156 4.738281 6.46875 3.71875 5.15625 C 2.707031 3.851562 2.078125 2.484375 1.828125 1.046875 L 7.0625 1.046875 C 7.363281 2.265625 8.113281 3.351562 9.3125 4.3125 C 10.507812 5.269531 12.285156 5.75 14.640625 5.75 C 17.179688 5.75 19.113281 5.078125 20.4375 3.734375 C 21.757812 2.390625 22.421875 0.316406 22.421875 -2.484375 L 22.421875 -6.796875 L 22.3125 -6.796875 C 21.613281 -5.390625 20.472656 -4.148438 18.890625 -3.078125 C 17.304688 -2.015625 15.375 -1.484375 13.09375 -1.484375 C 10.882812 -1.484375 8.875 -2.023438 7.0625 -3.109375 C 5.257812 -4.203125 3.820312 -5.769531 2.75 -7.8125 C 1.6875 -9.851562 1.15625 -12.332031 1.15625 -15.25 C 1.15625 -18.15625 1.6875 -20.628906 2.75 -22.671875 C 3.820312 -24.710938 5.257812 -26.273438 7.0625 -27.359375 C 8.875 -28.453125 10.882812 -29 13.09375 -29 C 15.375 -29 17.304688 -28.460938 18.890625 -27.390625 C 20.472656 -26.328125 21.613281 -25.054688 22.3125 -23.578125 L 22.421875 -23.578125 L 22.421875 -28.328125 L 27.671875 -28.328125 L 27.671875 -2.15625 C 27.671875 2.082031 26.5 5.101562 24.15625 6.90625 C 21.820312 8.707031 18.6875 9.609375 14.75 9.609375 Z M 14.46875 -5.53125 C 16.601562 -5.53125 18.441406 -6.335938 19.984375 -7.953125 C 21.535156 -9.578125 22.3125 -12.007812 22.3125 -15.25 C 22.3125 -18.445312 21.535156 -20.863281 19.984375 -22.5 C 18.441406 -24.144531 16.601562 -24.96875 14.46875 -24.96875 C 12.113281 -24.96875 10.179688 -24.144531 8.671875 -22.5 C 7.160156 -20.863281 6.40625 -18.445312 6.40625 -15.25 C 6.40625 -12.007812 7.160156 -9.578125 8.671875 -7.953125 C 10.179688 -6.335938 12.113281 -5.53125 14.46875 -5.53125 Z M 14.46875 -5.53125 "/></g></g></g><g fill="#201f25" fill-opacity="1"><g transform="translate(611.719009, 192.917711)"><g><path d="M 0.3125 0 C 0.3125 -0.539062 0.390625 -1.007812 0.546875 -1.40625 C 0.710938 -1.8125 0.925781 -2.171875 1.1875 -2.484375 C 1.445312 -2.796875 1.71875 -3.070312 2 -3.3125 C 2.4375 -3.664062 2.851562 -3.988281 3.25 -4.28125 C 3.644531 -4.570312 4 -4.84375 4.3125 -5.09375 C 4.632812 -5.351562 4.890625 -5.617188 5.078125 -5.890625 C 5.265625 -6.160156 5.359375 -6.453125 5.359375 -6.765625 C 5.359375 -7.140625 5.257812 -7.429688 5.0625 -7.640625 C 4.863281 -7.847656 4.570312 -7.953125 4.1875 -7.953125 C 3.726562 -7.953125 3.359375 -7.8125 3.078125 -7.53125 C 2.804688 -7.25 2.671875 -6.78125 2.671875 -6.125 L 0.453125 -6.125 C 0.453125 -7.257812 0.757812 -8.164062 1.375 -8.84375 C 1.988281 -9.519531 2.945312 -9.859375 4.25 -9.859375 C 4.945312 -9.859375 5.554688 -9.742188 6.078125 -9.515625 C 6.597656 -9.285156 7.003906 -8.953125 7.296875 -8.515625 C 7.585938 -8.078125 7.734375 -7.550781 7.734375 -6.9375 C 7.734375 -6.425781 7.628906 -5.960938 7.421875 -5.546875 C 7.222656 -5.140625 6.960938 -4.765625 6.640625 -4.421875 C 6.328125 -4.085938 5.984375 -3.773438 5.609375 -3.484375 C 5.242188 -3.203125 4.882812 -2.929688 4.53125 -2.671875 C 4.1875 -2.421875 3.890625 -2.175781 3.640625 -1.9375 L 3.640625 -1.90625 L 7.734375 -1.90625 L 7.734375 0 Z M 0.3125 0 "/></g></g></g><g fill="#201f25" fill-opacity="1"><g transform="translate(619.823778, 192.917711)"><g><path d="M 4.578125 0.21875 C 3.847656 0.21875 3.21875 0.0859375 2.6875 -0.171875 C 2.15625 -0.441406 1.710938 -0.804688 1.359375 -1.265625 C 1.015625 -1.734375 0.753906 -2.269531 0.578125 -2.875 C 0.410156 -3.488281 0.328125 -4.132812 0.328125 -4.8125 C 0.328125 -5.5 0.410156 -6.144531 0.578125 -6.75 C 0.753906 -7.351562 1.015625 -7.890625 1.359375 -8.359375 C 1.710938 -8.828125 2.15625 -9.191406 2.6875 -9.453125 C 3.21875 -9.722656 3.847656 -9.859375 4.578125 -9.859375 C 5.304688 -9.859375 5.929688 -9.722656 6.453125 -9.453125 C 6.984375 -9.191406 7.421875 -8.828125 7.765625 -8.359375 C 8.109375 -7.890625 8.363281 -7.351562 8.53125 -6.75 C 8.707031 -6.144531 8.796875 -5.5 8.796875 -4.8125 C 8.796875 -4.132812 8.707031 -3.488281 8.53125 -2.875 C 8.363281 -2.269531 8.109375 -1.734375 7.765625 -1.265625 C 7.421875 -0.804688 6.984375 -0.441406 6.453125 -0.171875 C 5.929688 0.0859375 5.304688 0.21875 4.578125 0.21875 Z M 4.578125 -1.6875 C 5.285156 -1.6875 5.769531 -1.96875 6.03125 -2.53125 C 6.300781 -3.09375 6.4375 -3.851562 6.4375 -4.8125 C 6.4375 -5.769531 6.300781 -6.53125 6.03125 -7.09375 C 5.769531 -7.664062 5.285156 -7.953125 4.578125 -7.953125 C 3.867188 -7.953125 3.378906 -7.664062 3.109375 -7.09375 C 2.835938 -6.53125 2.703125 -5.769531 2.703125 -4.8125 C 2.703125 -3.851562 2.835938 -3.09375 3.109375 -2.53125 C 3.378906 -1.96875 3.867188 -1.6875 4.578125 -1.6875 Z M 4.578125 -1.6875 "/></g></g></g><g fill="#201f25" fill-opacity="1"><g transform="translate(628.946878, 192.917711)"><g><path d="M 0.3125 0 C 0.3125 -0.539062 0.390625 -1.007812 0.546875 -1.40625 C 0.710938 -1.8125 0.925781 -2.171875 1.1875 -2.484375 C 1.445312 -2.796875 1.71875 -3.070312 2 -3.3125 C 2.4375 -3.664062 2.851562 -3.988281 3.25 -4.28125 C 3.644531 -4.570312 4 -4.84375 4.3125 -5.09375 C 4.632812 -5.351562 4.890625 -5.617188 5.078125 -5.890625 C 5.265625 -6.160156 5.359375 -6.453125 5.359375 -6.765625 C 5.359375 -7.140625 5.257812 -7.429688 5.0625 -7.640625 C 4.863281 -7.847656 4.570312 -7.953125 4.1875 -7.953125 C 3.726562 -7.953125 3.359375 -7.8125 3.078125 -7.53125 C 2.804688 -7.25 2.671875 -6.78125 2.671875 -6.125 L 0.453125 -6.125 C 0.453125 -7.257812 0.757812 -8.164062 1.375 -8.84375 C 1.988281 -9.519531 2.945312 -9.859375 4.25 -9.859375 C 4.945312 -9.859375 5.554688 -9.742188 6.078125 -9.515625 C 6.597656 -9.285156 7.003906 -8.953125 7.296875 -8.515625 C 7.585938 -8.078125 7.734375 -7.550781 7.734375 -6.9375 C 7.734375 -6.425781 7.628906 -5.960938 7.421875 -5.546875 C 7.222656 -5.140625 6.960938 -4.765625 6.640625 -4.421875 C 6.328125 -4.085938 5.984375 -3.773438 5.609375 -3.484375 C 5.242188 -3.203125 4.882812 -2.929688 4.53125 -2.671875 C 4.1875 -2.421875 3.890625 -2.175781 3.640625 -1.9375 L 3.640625 -1.90625 L 7.734375 -1.90625 L 7.734375 0 Z M 0.3125 0 "/></g></g></g><g fill="#201f25" fill-opacity="1"><g transform="translate(637.051647, 192.917711)"><g><path d="M 4.65625 0 L 4.65625 -2.03125 L 0.296875 -2.03125 L 0.296875 -4.375 L 4.65625 -9.640625 L 7.03125 -9.640625 L 7.03125 -3.953125 L 8.453125 -3.953125 L 8.453125 -2.03125 L 7.03125 -2.03125 L 7.03125 0 Z M 2.03125 -3.953125 L 4.65625 -3.953125 L 4.65625 -7.0625 Z M 2.03125 -3.953125 "/></g></g></g><g fill="#201f25" fill-opacity="1"><g transform="translate(645.742303, 192.917711)"><g/></g></g><g fill="#201f25" fill-opacity="1"><g transform="translate(648.11375, 192.917711)"><g><path d="M 5.125 0.21875 C 4.070312 0.21875 3.179688 -0.00390625 2.453125 -0.453125 C 1.734375 -0.898438 1.191406 -1.515625 0.828125 -2.296875 C 0.460938 -3.085938 0.28125 -3.988281 0.28125 -5 C 0.28125 -6 0.460938 -6.890625 0.828125 -7.671875 C 1.191406 -8.453125 1.734375 -9.066406 2.453125 -9.515625 C 3.179688 -9.972656 4.070312 -10.203125 5.125 -10.203125 C 6.03125 -10.203125 6.796875 -10.03125 7.421875 -9.6875 C 8.046875 -9.351562 8.535156 -8.890625 8.890625 -8.296875 C 9.242188 -7.710938 9.457031 -7.035156 9.53125 -6.265625 L 7.015625 -6.265625 C 6.921875 -6.816406 6.726562 -7.269531 6.4375 -7.625 C 6.144531 -7.976562 5.671875 -8.15625 5.015625 -8.15625 C 4.460938 -8.15625 4.019531 -8.019531 3.6875 -7.75 C 3.363281 -7.488281 3.132812 -7.117188 3 -6.640625 C 2.863281 -6.171875 2.796875 -5.625 2.796875 -5 C 2.796875 -4.375 2.863281 -3.820312 3 -3.34375 C 3.132812 -2.863281 3.363281 -2.488281 3.6875 -2.21875 C 4.019531 -1.957031 4.460938 -1.828125 5.015625 -1.828125 C 5.679688 -1.828125 6.160156 -2.003906 6.453125 -2.359375 C 6.742188 -2.722656 6.929688 -3.179688 7.015625 -3.734375 L 9.53125 -3.734375 C 9.457031 -2.953125 9.242188 -2.265625 8.890625 -1.671875 C 8.546875 -1.078125 8.054688 -0.613281 7.421875 -0.28125 C 6.796875 0.0507812 6.03125 0.21875 5.125 0.21875 Z M 5.125 0.21875 "/></g></g></g><g fill="#201f25" fill-opacity="1"><g transform="translate(657.836687, 192.917711)"><g><path d="M 5.21875 0.21875 C 4.164062 0.21875 3.269531 -0.00390625 2.53125 -0.453125 C 1.789062 -0.898438 1.226562 -1.515625 0.84375 -2.296875 C 0.46875 -3.085938 0.28125 -3.988281 0.28125 -5 C 0.28125 -6 0.46875 -6.890625 0.84375 -7.671875 C 1.226562 -8.453125 1.789062 -9.066406 2.53125 -9.515625 C 3.269531 -9.972656 4.164062 -10.203125 5.21875 -10.203125 C 6.269531 -10.203125 7.160156 -9.972656 7.890625 -9.515625 C 8.628906 -9.066406 9.191406 -8.453125 9.578125 -7.671875 C 9.960938 -6.890625 10.15625 -6 10.15625 -5 C 10.15625 -3.988281 9.960938 -3.085938 9.578125 -2.296875 C 9.191406 -1.515625 8.628906 -0.898438 7.890625 -0.453125 C 7.160156 -0.00390625 6.269531 0.21875 5.21875 0.21875 Z M 5.21875 -1.828125 C 5.820312 -1.828125 6.300781 -1.96875 6.65625 -2.25 C 7.007812 -2.53125 7.257812 -2.910156 7.40625 -3.390625 C 7.5625 -3.878906 7.640625 -4.414062 7.640625 -5 C 7.640625 -5.570312 7.5625 -6.097656 7.40625 -6.578125 C 7.257812 -7.054688 7.007812 -7.4375 6.65625 -7.71875 C 6.300781 -8.007812 5.820312 -8.15625 5.21875 -8.15625 C 4.613281 -8.15625 4.128906 -8.007812 3.765625 -7.71875 C 3.410156 -7.4375 3.160156 -7.054688 3.015625 -6.578125 C 2.867188 -6.097656 2.796875 -5.570312 2.796875 -5 C 2.796875 -4.414062 2.867188 -3.878906 3.015625 -3.390625 C 3.160156 -2.910156 3.410156 -2.53125 3.765625 -2.25 C 4.128906 -1.96875 4.613281 -1.828125 5.21875 -1.828125 Z M 5.21875 -1.828125 "/></g></g></g><g fill="#201f25" fill-opacity="1"><g transform="translate(668.271059, 192.917711)"><g><path d="M 0.6875 0 L 0.6875 -9.96875 L 3.1875 -9.96875 L 3.1875 -2.046875 L 7.625 -2.046875 L 7.625 0 Z M 0.6875 0 "/></g></g></g><g fill="#201f25" fill-opacity="1"><g transform="translate(676.15264, 192.917711)"><g><path d="M 0.6875 0 L 0.6875 -9.96875 L 3.1875 -9.96875 L 3.1875 -2.046875 L 7.625 -2.046875 L 7.625 0 Z M 0.6875 0 "/></g></g></g><g fill="#201f25" fill-opacity="1"><g transform="translate(684.034221, 192.917711)"><g><path d="M 0.6875 0 L 0.6875 -9.96875 L 8.25 -9.96875 L 8.25 -7.921875 L 3.1875 -7.921875 L 3.1875 -6.15625 L 7.546875 -6.15625 L 7.546875 -4.109375 L 3.1875 -4.109375 L 3.1875 -2.046875 L 8.328125 -2.046875 L 8.328125 0 Z M 0.6875 0 "/></g></g></g><g fill="#201f25" fill-opacity="1"><g transform="translate(692.794632, 192.917711)"><g><path d="M 5.125 0.21875 C 4.070312 0.21875 3.179688 -0.00390625 2.453125 -0.453125 C 1.734375 -0.898438 1.191406 -1.515625 0.828125 -2.296875 C 0.460938 -3.085938 0.28125 -3.988281 0.28125 -5 C 0.28125 -6 0.460938 -6.890625 0.828125 -7.671875 C 1.191406 -8.453125 1.734375 -9.066406 2.453125 -9.515625 C 3.179688 -9.972656 4.070312 -10.203125 5.125 -10.203125 C 6.03125 -10.203125 6.796875 -10.03125 7.421875 -9.6875 C 8.046875 -9.351562 8.535156 -8.890625 8.890625 -8.296875 C 9.242188 -7.710938 9.457031 -7.035156 9.53125 -6.265625 L 7.015625 -6.265625 C 6.921875 -6.816406 6.726562 -7.269531 6.4375 -7.625 C 6.144531 -7.976562 5.671875 -8.15625 5.015625 -8.15625 C 4.460938 -8.15625 4.019531 -8.019531 3.6875 -7.75 C 3.363281 -7.488281 3.132812 -7.117188 3 -6.640625 C 2.863281 -6.171875 2.796875 -5.625 2.796875 -5 C 2.796875 -4.375 2.863281 -3.820312 3 -3.34375 C 3.132812 -2.863281 3.363281 -2.488281 3.6875 -2.21875 C 4.019531 -1.957031 4.460938 -1.828125 5.015625 -1.828125 C 5.679688 -1.828125 6.160156 -2.003906 6.453125 -2.359375 C 6.742188 -2.722656 6.929688 -3.179688 7.015625 -3.734375 L 9.53125 -3.734375 C 9.457031 -2.953125 9.242188 -2.265625 8.890625 -1.671875 C 8.546875 -1.078125 8.054688 -0.613281 7.421875 -0.28125 C 6.796875 0.0507812 6.03125 0.21875 5.125 0.21875 Z M 5.125 0.21875 "/></g></g></g><g fill="#201f25" fill-opacity="1"><g transform="translate(702.517568, 192.917711)"><g><path d="M 3.140625 0 L 3.140625 -7.921875 L 0.234375 -7.921875 L 0.234375 -9.96875 L 8.546875 -9.96875 L 8.546875 -7.921875 L 5.65625 -7.921875 L 5.65625 0 Z M 3.140625 0 "/></g></g></g><g fill="#201f25" fill-opacity="1"><g transform="translate(711.29193, 192.917711)"><g><path d="M 0.703125 0 L 0.703125 -9.96875 L 3.203125 -9.96875 L 3.203125 0 Z M 0.703125 0 "/></g></g></g><g fill="#201f25" fill-opacity="1"><g transform="translate(715.183896, 192.917711)"><g><path d="M 5.21875 0.21875 C 4.164062 0.21875 3.269531 -0.00390625 2.53125 -0.453125 C 1.789062 -0.898438 1.226562 -1.515625 0.84375 -2.296875 C 0.46875 -3.085938 0.28125 -3.988281 0.28125 -5 C 0.28125 -6 0.46875 -6.890625 0.84375 -7.671875 C 1.226562 -8.453125 1.789062 -9.066406 2.53125 -9.515625 C 3.269531 -9.972656 4.164062 -10.203125 5.21875 -10.203125 C 6.269531 -10.203125 7.160156 -9.972656 7.890625 -9.515625 C 8.628906 -9.066406 9.191406 -8.453125 9.578125 -7.671875 C 9.960938 -6.890625 10.15625 -6 10.15625 -5 C 10.15625 -3.988281 9.960938 -3.085938 9.578125 -2.296875 C 9.191406 -1.515625 8.628906 -0.898438 7.890625 -0.453125 C 7.160156 -0.00390625 6.269531 0.21875 5.21875 0.21875 Z M 5.21875 -1.828125 C 5.820312 -1.828125 6.300781 -1.96875 6.65625 -2.25 C 7.007812 -2.53125 7.257812 -2.910156 7.40625 -3.390625 C 7.5625 -3.878906 7.640625 -4.414062 7.640625 -5 C 7.640625 -5.570312 7.5625 -6.097656 7.40625 -6.578125 C 7.257812 -7.054688 7.007812 -7.4375 6.65625 -7.71875 C 6.300781 -8.007812 5.820312 -8.15625 5.21875 -8.15625 C 4.613281 -8.15625 4.128906 -8.007812 3.765625 -7.71875 C 3.410156 -7.4375 3.160156 -7.054688 3.015625 -6.578125 C 2.867188 -6.097656 2.796875 -5.570312 2.796875 -5 C 2.796875 -4.414062 2.867188 -3.878906 3.015625 -3.390625 C 3.160156 -2.910156 3.410156 -2.53125 3.765625 -2.25 C 4.128906 -1.96875 4.613281 -1.828125 5.21875 -1.828125 Z M 5.21875 -1.828125 "/></g></g></g><g fill="#201f25" fill-opacity="1"><g transform="translate(725.618269, 192.917711)"><g><path d="M 0.6875 0 L 0.6875 -9.96875 L 3.1875 -9.96875 L 6.6875 -4.046875 L 6.71875 -4.046875 L 6.71875 -9.96875 L 9.21875 -9.96875 L 9.21875 0 L 6.71875 0 L 3.21875 -5.9375 L 3.1875 -5.9375 L 3.1875 0 Z M 0.6875 0 "/></g></g></g><g fill="#201f25" fill-opacity="1"><g transform="translate(137.095709, 201.141778)"><g><path d="M 0.875 0 L 0 -3.453125 L 0.875 -3.453125 L 1.3125 -1.109375 L 1.328125 -1.109375 L 1.859375 -3.453125 L 2.671875 -3.453125 L 3.21875 -1.109375 L 3.671875 -3.453125 L 4.53125 -3.453125 L 3.65625 0 L 2.796875 0 L 2.28125 -2.15625 L 2.265625 -2.15625 L 1.75 0 Z M 0.875 0 "/></g></g></g><g fill="#201f25" fill-opacity="1"><g transform="translate(141.635451, 201.141778)"><g><path d="M 0.875 0 L 0 -3.453125 L 0.875 -3.453125 L 1.3125 -1.109375 L 1.328125 -1.109375 L 1.859375 -3.453125 L 2.671875 -3.453125 L 3.21875 -1.109375 L 3.671875 -3.453125 L 4.53125 -3.453125 L 3.65625 0 L 2.796875 0 L 2.28125 -2.15625 L 2.265625 -2.15625 L 1.75 0 Z M 0.875 0 "/></g></g></g><g fill="#201f25" fill-opacity="1"><g transform="translate(146.175192, 201.141778)"><g><path d="M 0.875 0 L 0 -3.453125 L 0.875 -3.453125 L 1.3125 -1.109375 L 1.328125 -1.109375 L 1.859375 -3.453125 L 2.671875 -3.453125 L 3.21875 -1.109375 L 3.671875 -3.453125 L 4.53125 -3.453125 L 3.65625 0 L 2.796875 0 L 2.28125 -2.15625 L 2.265625 -2.15625 L 1.75 0 Z M 0.875 0 "/></g></g></g><g fill="#201f25" fill-opacity="1"><g transform="translate(150.714934, 201.141778)"><g><path d="M 0.5625 0.046875 C 0.445312 0.046875 0.347656 0.0078125 0.265625 -0.0625 C 0.191406 -0.132812 0.15625 -0.234375 0.15625 -0.359375 C 0.15625 -0.484375 0.191406 -0.582031 0.265625 -0.65625 C 0.347656 -0.738281 0.445312 -0.78125 0.5625 -0.78125 C 0.675781 -0.78125 0.769531 -0.738281 0.84375 -0.65625 C 0.925781 -0.582031 0.96875 -0.484375 0.96875 -0.359375 C 0.96875 -0.234375 0.925781 -0.132812 0.84375 -0.0625 C 0.769531 0.0078125 0.675781 0.046875 0.5625 0.046875 Z M 0.5625 0.046875 "/></g></g></g><g fill="#201f25" fill-opacity="1"><g transform="translate(151.845038, 201.141778)"><g><path d="M 0.234375 0 L 0.234375 -3.453125 L 1.296875 -3.453125 L 2.015625 -1.25 L 2.734375 -3.453125 L 3.796875 -3.453125 L 3.796875 0 L 2.96875 0 L 2.96875 -2.15625 L 2.953125 -2.15625 L 2.3125 0 L 1.703125 0 L 1.0625 -2.15625 L 1.0625 0 Z M 0.234375 0 "/></g></g></g><g fill="#201f25" fill-opacity="1"><g transform="translate(155.872853, 201.141778)"><g><path d="M 1.8125 0.078125 C 1.445312 0.078125 1.132812 0 0.875 -0.15625 C 0.625 -0.3125 0.429688 -0.523438 0.296875 -0.796875 C 0.160156 -1.066406 0.09375 -1.378906 0.09375 -1.734375 C 0.09375 -2.078125 0.160156 -2.382812 0.296875 -2.65625 C 0.429688 -2.925781 0.625 -3.140625 0.875 -3.296875 C 1.132812 -3.453125 1.445312 -3.53125 1.8125 -3.53125 C 2.164062 -3.53125 2.46875 -3.453125 2.71875 -3.296875 C 2.976562 -3.140625 3.175781 -2.925781 3.3125 -2.65625 C 3.445312 -2.382812 3.515625 -2.078125 3.515625 -1.734375 C 3.515625 -1.378906 3.445312 -1.066406 3.3125 -0.796875 C 3.175781 -0.523438 2.976562 -0.3125 2.71875 -0.15625 C 2.46875 0 2.164062 0.078125 1.8125 0.078125 Z M 1.8125 -0.625 C 2.019531 -0.625 2.179688 -0.671875 2.296875 -0.765625 C 2.421875 -0.867188 2.507812 -1.003906 2.5625 -1.171875 C 2.613281 -1.335938 2.640625 -1.523438 2.640625 -1.734375 C 2.640625 -1.929688 2.613281 -2.113281 2.5625 -2.28125 C 2.507812 -2.445312 2.421875 -2.578125 2.296875 -2.671875 C 2.179688 -2.765625 2.019531 -2.8125 1.8125 -2.8125 C 1.59375 -2.8125 1.421875 -2.765625 1.296875 -2.671875 C 1.179688 -2.578125 1.097656 -2.445312 1.046875 -2.28125 C 0.992188 -2.113281 0.96875 -1.929688 0.96875 -1.734375 C 0.96875 -1.523438 0.992188 -1.335938 1.046875 -1.171875 C 1.097656 -1.003906 1.179688 -0.867188 1.296875 -0.765625 C 1.421875 -0.671875 1.59375 -0.625 1.8125 -0.625 Z M 1.8125 -0.625 "/></g></g></g><g fill="#201f25" fill-opacity="1"><g transform="translate(159.485328, 201.141778)"><g><path d="M 0.234375 0 L 0.234375 -3.453125 L 1.109375 -3.453125 L 2.3125 -1.40625 L 2.328125 -1.40625 L 2.328125 -3.453125 L 3.1875 -3.453125 L 3.1875 0 L 2.328125 0 L 1.109375 -2.046875 L 1.109375 0 Z M 0.234375 0 "/></g></g></g><g fill="#201f25" fill-opacity="1"><g transform="translate(162.914285, 201.141778)"><g><path d="M 1.640625 0.078125 C 1.347656 0.078125 1.082031 0.03125 0.84375 -0.0625 C 0.601562 -0.15625 0.414062 -0.289062 0.28125 -0.46875 C 0.144531 -0.65625 0.078125 -0.878906 0.078125 -1.140625 L 0.9375 -1.140625 C 0.9375 -1.015625 0.96875 -0.914062 1.03125 -0.84375 C 1.101562 -0.769531 1.191406 -0.710938 1.296875 -0.671875 C 1.398438 -0.640625 1.515625 -0.625 1.640625 -0.625 C 1.804688 -0.625 1.929688 -0.648438 2.015625 -0.703125 C 2.097656 -0.765625 2.140625 -0.84375 2.140625 -0.9375 C 2.140625 -1.03125 2.101562 -1.097656 2.03125 -1.140625 C 1.957031 -1.191406 1.851562 -1.238281 1.71875 -1.28125 C 1.59375 -1.320312 1.445312 -1.367188 1.28125 -1.421875 C 1.082031 -1.472656 0.898438 -1.539062 0.734375 -1.625 C 0.566406 -1.707031 0.429688 -1.816406 0.328125 -1.953125 C 0.222656 -2.085938 0.171875 -2.265625 0.171875 -2.484375 C 0.171875 -2.734375 0.226562 -2.9375 0.34375 -3.09375 C 0.46875 -3.25 0.628906 -3.359375 0.828125 -3.421875 C 1.023438 -3.492188 1.25 -3.53125 1.5 -3.53125 C 1.769531 -3.53125 2.015625 -3.484375 2.234375 -3.390625 C 2.453125 -3.304688 2.625 -3.175781 2.75 -3 C 2.882812 -2.832031 2.957031 -2.632812 2.96875 -2.40625 L 2.09375 -2.40625 C 2.070312 -2.539062 2.007812 -2.640625 1.90625 -2.703125 C 1.800781 -2.773438 1.664062 -2.8125 1.5 -2.8125 C 1.375 -2.8125 1.265625 -2.789062 1.171875 -2.75 C 1.078125 -2.707031 1.03125 -2.640625 1.03125 -2.546875 C 1.03125 -2.441406 1.082031 -2.363281 1.1875 -2.3125 C 1.300781 -2.257812 1.46875 -2.203125 1.6875 -2.140625 C 1.851562 -2.097656 2.015625 -2.046875 2.171875 -1.984375 C 2.328125 -1.929688 2.46875 -1.863281 2.59375 -1.78125 C 2.71875 -1.707031 2.816406 -1.609375 2.890625 -1.484375 C 2.972656 -1.359375 3.015625 -1.203125 3.015625 -1.015625 C 3.015625 -0.679688 2.894531 -0.414062 2.65625 -0.21875 C 2.414062 -0.0195312 2.078125 0.078125 1.640625 0.078125 Z M 1.640625 0.078125 "/></g></g></g><g fill="#201f25" fill-opacity="1"><g transform="translate(166.03898, 201.141778)"><g><path d="M 1.09375 0 L 1.09375 -2.75 L 0.078125 -2.75 L 0.078125 -3.453125 L 2.953125 -3.453125 L 2.953125 -2.75 L 1.953125 -2.75 L 1.953125 0 Z M 1.09375 0 "/></g></g></g><g fill="#201f25" fill-opacity="1"><g transform="translate(169.076743, 201.141778)"><g><path d="M 0.234375 0 L 0.234375 -3.453125 L 2.859375 -3.453125 L 2.859375 -2.75 L 1.109375 -2.75 L 1.109375 -2.125 L 2.609375 -2.125 L 2.609375 -1.421875 L 1.109375 -1.421875 L 1.109375 -0.703125 L 2.875 -0.703125 L 2.875 0 Z M 0.234375 0 "/></g></g></g><g fill="#201f25" fill-opacity="1"><g transform="translate(172.109679, 201.141778)"><g><path d="M 0.234375 0 L 0.234375 -3.453125 L 1.859375 -3.453125 C 2.242188 -3.453125 2.546875 -3.363281 2.765625 -3.1875 C 2.984375 -3.019531 3.09375 -2.773438 3.09375 -2.453125 C 3.09375 -2.222656 3.03125 -2.035156 2.90625 -1.890625 C 2.78125 -1.742188 2.609375 -1.648438 2.390625 -1.609375 L 2.390625 -1.59375 C 2.535156 -1.5625 2.648438 -1.503906 2.734375 -1.421875 C 2.816406 -1.347656 2.878906 -1.253906 2.921875 -1.140625 C 2.972656 -1.023438 3.003906 -0.90625 3.015625 -0.78125 C 3.035156 -0.664062 3.046875 -0.550781 3.046875 -0.4375 C 3.054688 -0.332031 3.066406 -0.242188 3.078125 -0.171875 C 3.085938 -0.0976562 3.109375 -0.0546875 3.140625 -0.046875 L 3.140625 0 L 2.234375 0 C 2.210938 -0.0195312 2.195312 -0.0625 2.1875 -0.125 C 2.175781 -0.195312 2.171875 -0.28125 2.171875 -0.375 C 2.171875 -0.46875 2.164062 -0.5625 2.15625 -0.65625 C 2.144531 -0.75 2.125 -0.835938 2.09375 -0.921875 C 2.0625 -1.003906 2.007812 -1.070312 1.9375 -1.125 C 1.863281 -1.175781 1.765625 -1.203125 1.640625 -1.203125 L 1.109375 -1.203125 L 1.109375 0 Z M 1.109375 -1.90625 L 1.6875 -1.90625 C 1.863281 -1.90625 1.992188 -1.9375 2.078125 -2 C 2.171875 -2.070312 2.21875 -2.179688 2.21875 -2.328125 C 2.21875 -2.472656 2.171875 -2.578125 2.078125 -2.640625 C 1.992188 -2.710938 1.863281 -2.75 1.6875 -2.75 L 1.109375 -2.75 Z M 1.109375 -1.90625 "/></g></g></g><g fill="#201f25" fill-opacity="1"><g transform="translate(175.350285, 201.141778)"><g><path d="M 0.234375 0 L 0.234375 -3.453125 L 1.109375 -3.453125 L 1.109375 0 Z M 0.234375 0 "/></g></g></g><g fill="#201f25" fill-opacity="1"><g transform="translate(176.697719, 201.141778)"><g><path d="M 0.234375 0 L 0.234375 -3.453125 L 1.109375 -3.453125 L 2.3125 -1.40625 L 2.328125 -1.40625 L 2.328125 -3.453125 L 3.1875 -3.453125 L 3.1875 0 L 2.328125 0 L 1.109375 -2.046875 L 1.109375 0 Z M 0.234375 0 "/></g></g></g><g fill="#201f25" fill-opacity="1"><g transform="translate(180.126677, 201.141778)"><g><path d="M 1.09375 0 L 1.09375 -2.75 L 0.078125 -2.75 L 0.078125 -3.453125 L 2.953125 -3.453125 L 2.953125 -2.75 L 1.953125 -2.75 L 1.953125 0 Z M 1.09375 0 "/></g></g></g><g fill="#201f25" fill-opacity="1"><g transform="translate(183.16444, 201.141778)"><g><path d="M 0.234375 0 L 0.234375 -3.453125 L 2.859375 -3.453125 L 2.859375 -2.75 L 1.109375 -2.75 L 1.109375 -2.125 L 2.609375 -2.125 L 2.609375 -1.421875 L 1.109375 -1.421875 L 1.109375 -0.703125 L 2.875 -0.703125 L 2.875 0 Z M 0.234375 0 "/></g></g></g><g fill="#201f25" fill-opacity="1"><g transform="translate(186.197376, 201.141778)"><g><path d="M 0.234375 0 L 0.234375 -3.453125 L 1.859375 -3.453125 C 2.242188 -3.453125 2.546875 -3.363281 2.765625 -3.1875 C 2.984375 -3.019531 3.09375 -2.773438 3.09375 -2.453125 C 3.09375 -2.222656 3.03125 -2.035156 2.90625 -1.890625 C 2.78125 -1.742188 2.609375 -1.648438 2.390625 -1.609375 L 2.390625 -1.59375 C 2.535156 -1.5625 2.648438 -1.503906 2.734375 -1.421875 C 2.816406 -1.347656 2.878906 -1.253906 2.921875 -1.140625 C 2.972656 -1.023438 3.003906 -0.90625 3.015625 -0.78125 C 3.035156 -0.664062 3.046875 -0.550781 3.046875 -0.4375 C 3.054688 -0.332031 3.066406 -0.242188 3.078125 -0.171875 C 3.085938 -0.0976562 3.109375 -0.0546875 3.140625 -0.046875 L 3.140625 0 L 2.234375 0 C 2.210938 -0.0195312 2.195312 -0.0625 2.1875 -0.125 C 2.175781 -0.195312 2.171875 -0.28125 2.171875 -0.375 C 2.171875 -0.46875 2.164062 -0.5625 2.15625 -0.65625 C 2.144531 -0.75 2.125 -0.835938 2.09375 -0.921875 C 2.0625 -1.003906 2.007812 -1.070312 1.9375 -1.125 C 1.863281 -1.175781 1.765625 -1.203125 1.640625 -1.203125 L 1.109375 -1.203125 L 1.109375 0 Z M 1.109375 -1.90625 L 1.6875 -1.90625 C 1.863281 -1.90625 1.992188 -1.9375 2.078125 -2 C 2.171875 -2.070312 2.21875 -2.179688 2.21875 -2.328125 C 2.21875 -2.472656 2.171875 -2.578125 2.078125 -2.640625 C 1.992188 -2.710938 1.863281 -2.75 1.6875 -2.75 L 1.109375 -2.75 Z M 1.109375 -1.90625 "/></g></g></g><g fill="#201f25" fill-opacity="1"><g transform="translate(189.437982, 201.141778)"><g><path d="M 0.234375 0 L 0.234375 -3.453125 L 1.109375 -3.453125 L 1.109375 0 Z M 0.234375 0 "/></g></g></g><g fill="#201f25" fill-opacity="1"><g transform="translate(190.785416, 201.141778)"><g><path d="M 1.8125 0.078125 C 1.445312 0.078125 1.132812 0 0.875 -0.15625 C 0.625 -0.3125 0.429688 -0.523438 0.296875 -0.796875 C 0.160156 -1.066406 0.09375 -1.378906 0.09375 -1.734375 C 0.09375 -2.078125 0.160156 -2.382812 0.296875 -2.65625 C 0.429688 -2.925781 0.625 -3.140625 0.875 -3.296875 C 1.132812 -3.453125 1.445312 -3.53125 1.8125 -3.53125 C 2.164062 -3.53125 2.46875 -3.453125 2.71875 -3.296875 C 2.976562 -3.140625 3.175781 -2.925781 3.3125 -2.65625 C 3.445312 -2.382812 3.515625 -2.078125 3.515625 -1.734375 C 3.515625 -1.378906 3.445312 -1.066406 3.3125 -0.796875 C 3.175781 -0.523438 2.976562 -0.3125 2.71875 -0.15625 C 2.46875 0 2.164062 0.078125 1.8125 0.078125 Z M 1.8125 -0.625 C 2.019531 -0.625 2.179688 -0.671875 2.296875 -0.765625 C 2.421875 -0.867188 2.507812 -1.003906 2.5625 -1.171875 C 2.613281 -1.335938 2.640625 -1.523438 2.640625 -1.734375 C 2.640625 -1.929688 2.613281 -2.113281 2.5625 -2.28125 C 2.507812 -2.445312 2.421875 -2.578125 2.296875 -2.671875 C 2.179688 -2.765625 2.019531 -2.8125 1.8125 -2.8125 C 1.59375 -2.8125 1.421875 -2.765625 1.296875 -2.671875 C 1.179688 -2.578125 1.097656 -2.445312 1.046875 -2.28125 C 0.992188 -2.113281 0.96875 -1.929688 0.96875 -1.734375 C 0.96875 -1.523438 0.992188 -1.335938 1.046875 -1.171875 C 1.097656 -1.003906 1.179688 -0.867188 1.296875 -0.765625 C 1.421875 -0.671875 1.59375 -0.625 1.8125 -0.625 Z M 1.8125 -0.625 "/></g></g></g><g fill="#201f25" fill-opacity="1"><g transform="translate(194.397891, 201.141778)"><g><path d="M 0.234375 0 L 0.234375 -3.453125 L 1.859375 -3.453125 C 2.242188 -3.453125 2.546875 -3.363281 2.765625 -3.1875 C 2.984375 -3.019531 3.09375 -2.773438 3.09375 -2.453125 C 3.09375 -2.222656 3.03125 -2.035156 2.90625 -1.890625 C 2.78125 -1.742188 2.609375 -1.648438 2.390625 -1.609375 L 2.390625 -1.59375 C 2.535156 -1.5625 2.648438 -1.503906 2.734375 -1.421875 C 2.816406 -1.347656 2.878906 -1.253906 2.921875 -1.140625 C 2.972656 -1.023438 3.003906 -0.90625 3.015625 -0.78125 C 3.035156 -0.664062 3.046875 -0.550781 3.046875 -0.4375 C 3.054688 -0.332031 3.066406 -0.242188 3.078125 -0.171875 C 3.085938 -0.0976562 3.109375 -0.0546875 3.140625 -0.046875 L 3.140625 0 L 2.234375 0 C 2.210938 -0.0195312 2.195312 -0.0625 2.1875 -0.125 C 2.175781 -0.195312 2.171875 -0.28125 2.171875 -0.375 C 2.171875 -0.46875 2.164062 -0.5625 2.15625 -0.65625 C 2.144531 -0.75 2.125 -0.835938 2.09375 -0.921875 C 2.0625 -1.003906 2.007812 -1.070312 1.9375 -1.125 C 1.863281 -1.175781 1.765625 -1.203125 1.640625 -1.203125 L 1.109375 -1.203125 L 1.109375 0 Z M 1.109375 -1.90625 L 1.6875 -1.90625 C 1.863281 -1.90625 1.992188 -1.9375 2.078125 -2 C 2.171875 -2.070312 2.21875 -2.179688 2.21875 -2.328125 C 2.21875 -2.472656 2.171875 -2.578125 2.078125 -2.640625 C 1.992188 -2.710938 1.863281 -2.75 1.6875 -2.75 L 1.109375 -2.75 Z M 1.109375 -1.90625 "/></g></g></g><g fill="#201f25" fill-opacity="1"><g transform="translate(197.638497, 201.141778)"><g><path d="M 0.5625 0.046875 C 0.445312 0.046875 0.347656 0.0078125 0.265625 -0.0625 C 0.191406 -0.132812 0.15625 -0.234375 0.15625 -0.359375 C 0.15625 -0.484375 0.191406 -0.582031 0.265625 -0.65625 C 0.347656 -0.738281 0.445312 -0.78125 0.5625 -0.78125 C 0.675781 -0.78125 0.769531 -0.738281 0.84375 -0.65625 C 0.925781 -0.582031 0.96875 -0.484375 0.96875 -0.359375 C 0.96875 -0.234375 0.925781 -0.132812 0.84375 -0.0625 C 0.769531 0.0078125 0.675781 0.046875 0.5625 0.046875 Z M 0.5625 0.046875 "/></g></g></g><g fill="#201f25" fill-opacity="1"><g transform="translate(198.768601, 201.141778)"><g><path d="M 1.765625 0.078125 C 1.398438 0.078125 1.09375 0 0.84375 -0.15625 C 0.601562 -0.3125 0.414062 -0.523438 0.28125 -0.796875 C 0.15625 -1.066406 0.09375 -1.378906 0.09375 -1.734375 C 0.09375 -2.078125 0.15625 -2.382812 0.28125 -2.65625 C 0.414062 -2.925781 0.601562 -3.140625 0.84375 -3.296875 C 1.09375 -3.453125 1.398438 -3.53125 1.765625 -3.53125 C 2.085938 -3.53125 2.351562 -3.472656 2.5625 -3.359375 C 2.78125 -3.242188 2.953125 -3.082031 3.078125 -2.875 C 3.203125 -2.664062 3.273438 -2.429688 3.296875 -2.171875 L 2.421875 -2.171875 C 2.390625 -2.359375 2.320312 -2.507812 2.21875 -2.625 C 2.125 -2.75 1.960938 -2.8125 1.734375 -2.8125 C 1.546875 -2.8125 1.394531 -2.765625 1.28125 -2.671875 C 1.164062 -2.585938 1.082031 -2.460938 1.03125 -2.296875 C 0.988281 -2.128906 0.96875 -1.941406 0.96875 -1.734375 C 0.96875 -1.515625 0.988281 -1.320312 1.03125 -1.15625 C 1.082031 -0.988281 1.164062 -0.859375 1.28125 -0.765625 C 1.394531 -0.671875 1.546875 -0.625 1.734375 -0.625 C 1.960938 -0.625 2.128906 -0.6875 2.234375 -0.8125 C 2.335938 -0.9375 2.398438 -1.097656 2.421875 -1.296875 L 3.296875 -1.296875 C 3.273438 -1.023438 3.203125 -0.785156 3.078125 -0.578125 C 2.953125 -0.367188 2.78125 -0.207031 2.5625 -0.09375 C 2.351562 0.0195312 2.085938 0.078125 1.765625 0.078125 Z M 1.765625 0.078125 "/></g></g></g><g fill="#201f25" fill-opacity="1"><g transform="translate(202.134773, 201.141778)"><g><path d="M 1.8125 0.078125 C 1.445312 0.078125 1.132812 0 0.875 -0.15625 C 0.625 -0.3125 0.429688 -0.523438 0.296875 -0.796875 C 0.160156 -1.066406 0.09375 -1.378906 0.09375 -1.734375 C 0.09375 -2.078125 0.160156 -2.382812 0.296875 -2.65625 C 0.429688 -2.925781 0.625 -3.140625 0.875 -3.296875 C 1.132812 -3.453125 1.445312 -3.53125 1.8125 -3.53125 C 2.164062 -3.53125 2.46875 -3.453125 2.71875 -3.296875 C 2.976562 -3.140625 3.175781 -2.925781 3.3125 -2.65625 C 3.445312 -2.382812 3.515625 -2.078125 3.515625 -1.734375 C 3.515625 -1.378906 3.445312 -1.066406 3.3125 -0.796875 C 3.175781 -0.523438 2.976562 -0.3125 2.71875 -0.15625 C 2.46875 0 2.164062 0.078125 1.8125 0.078125 Z M 1.8125 -0.625 C 2.019531 -0.625 2.179688 -0.671875 2.296875 -0.765625 C 2.421875 -0.867188 2.507812 -1.003906 2.5625 -1.171875 C 2.613281 -1.335938 2.640625 -1.523438 2.640625 -1.734375 C 2.640625 -1.929688 2.613281 -2.113281 2.5625 -2.28125 C 2.507812 -2.445312 2.421875 -2.578125 2.296875 -2.671875 C 2.179688 -2.765625 2.019531 -2.8125 1.8125 -2.8125 C 1.59375 -2.8125 1.421875 -2.765625 1.296875 -2.671875 C 1.179688 -2.578125 1.097656 -2.445312 1.046875 -2.28125 C 0.992188 -2.113281 0.96875 -1.929688 0.96875 -1.734375 C 0.96875 -1.523438 0.992188 -1.335938 1.046875 -1.171875 C 1.097656 -1.003906 1.179688 -0.867188 1.296875 -0.765625 C 1.421875 -0.671875 1.59375 -0.625 1.8125 -0.625 Z M 1.8125 -0.625 "/></g></g></g><g fill="#201f25" fill-opacity="1"><g transform="translate(205.747248, 201.141778)"><g><path d="M 0.234375 0 L 0.234375 -3.453125 L 1.296875 -3.453125 L 2.015625 -1.25 L 2.734375 -3.453125 L 3.796875 -3.453125 L 3.796875 0 L 2.96875 0 L 2.96875 -2.15625 L 2.953125 -2.15625 L 2.3125 0 L 1.703125 0 L 1.0625 -2.15625 L 1.0625 0 Z M 0.234375 0 "/></g></g></g><g fill="#201f25" fill-opacity="1"><g transform="translate(137.095709, 172.850955)"><g><path d="M 0.75 0 L 0.75 -8.828125 L 4.390625 -8.828125 C 5.222656 -8.828125 5.867188 -8.632812 6.328125 -8.25 C 6.785156 -7.875 7.015625 -7.328125 7.015625 -6.609375 C 7.015625 -6.109375 6.882812 -5.695312 6.625 -5.375 C 6.375 -5.0625 6.023438 -4.828125 5.578125 -4.671875 L 5.578125 -4.65625 C 6.109375 -4.550781 6.539062 -4.3125 6.875 -3.9375 C 7.21875 -3.570312 7.390625 -3.085938 7.390625 -2.484375 C 7.390625 -1.898438 7.269531 -1.421875 7.03125 -1.046875 C 6.789062 -0.679688 6.457031 -0.414062 6.03125 -0.25 C 5.601562 -0.0820312 5.113281 0 4.5625 0 Z M 1.609375 -4.90625 L 4.46875 -4.90625 C 4.96875 -4.90625 5.375 -5.046875 5.6875 -5.328125 C 6 -5.617188 6.15625 -6.007812 6.15625 -6.5 C 6.15625 -7.007812 5.992188 -7.40625 5.671875 -7.6875 C 5.347656 -7.96875 4.878906 -8.109375 4.265625 -8.109375 L 1.609375 -8.109375 Z M 1.609375 -0.71875 L 4.390625 -0.71875 C 5.023438 -0.71875 5.539062 -0.851562 5.9375 -1.125 C 6.34375 -1.40625 6.546875 -1.882812 6.546875 -2.5625 C 6.546875 -3.113281 6.359375 -3.539062 5.984375 -3.84375 C 5.617188 -4.15625 5.128906 -4.3125 4.515625 -4.3125 L 1.609375 -4.3125 Z M 1.609375 -0.71875 "/></g></g></g><g fill="#201f25" fill-opacity="1"><g transform="translate(144.79679, 172.850955)"><g><path d="M 0.75 0 L 0.75 -8.828125 L 6.78125 -8.828125 L 6.78125 -8.109375 L 1.609375 -8.109375 L 1.609375 -5.015625 L 6.296875 -5.015625 L 6.296875 -4.296875 L 1.609375 -4.296875 L 1.609375 -0.71875 L 6.890625 -0.71875 L 6.890625 0 Z M 0.75 0 "/></g></g></g><g fill="#201f25" fill-opacity="1"><g transform="translate(152.127626, 172.850955)"><g><path d="M 0.75 0 L 0.75 -8.828125 L 4.375 -8.828125 C 5.226562 -8.828125 5.90625 -8.625 6.40625 -8.21875 C 6.914062 -7.8125 7.171875 -7.179688 7.171875 -6.328125 C 7.171875 -5.703125 7 -5.203125 6.65625 -4.828125 C 6.3125 -4.453125 5.847656 -4.203125 5.265625 -4.078125 L 5.265625 -4.0625 C 5.628906 -4.007812 5.925781 -3.878906 6.15625 -3.671875 C 6.382812 -3.472656 6.554688 -3.226562 6.671875 -2.9375 C 6.785156 -2.644531 6.867188 -2.335938 6.921875 -2.015625 C 6.984375 -1.703125 7.023438 -1.398438 7.046875 -1.109375 C 7.066406 -0.828125 7.097656 -0.59375 7.140625 -0.40625 C 7.179688 -0.21875 7.238281 -0.113281 7.3125 -0.09375 L 7.3125 0 L 6.421875 0 C 6.347656 -0.0625 6.296875 -0.191406 6.265625 -0.390625 C 6.234375 -0.597656 6.207031 -0.84375 6.1875 -1.125 C 6.164062 -1.40625 6.125 -1.691406 6.0625 -1.984375 C 6.007812 -2.285156 5.921875 -2.5625 5.796875 -2.8125 C 5.671875 -3.070312 5.488281 -3.28125 5.25 -3.4375 C 5.007812 -3.601562 4.691406 -3.6875 4.296875 -3.6875 L 1.609375 -3.6875 L 1.609375 0 Z M 1.609375 -4.390625 L 4.09375 -4.390625 C 4.75 -4.390625 5.28125 -4.539062 5.6875 -4.84375 C 6.101562 -5.15625 6.3125 -5.628906 6.3125 -6.265625 C 6.3125 -6.921875 6.125 -7.390625 5.75 -7.671875 C 5.375 -7.960938 4.820312 -8.109375 4.09375 -8.109375 L 1.609375 -8.109375 Z M 1.609375 -4.390625 "/></g></g></g><g fill="#201f25" fill-opacity="1"><g transform="translate(159.804031, 172.850955)"><g><path d="M 0.75 0 L 0.75 -8.828125 L 4.390625 -8.828125 C 5.222656 -8.828125 5.867188 -8.632812 6.328125 -8.25 C 6.785156 -7.875 7.015625 -7.328125 7.015625 -6.609375 C 7.015625 -6.109375 6.882812 -5.695312 6.625 -5.375 C 6.375 -5.0625 6.023438 -4.828125 5.578125 -4.671875 L 5.578125 -4.65625 C 6.109375 -4.550781 6.539062 -4.3125 6.875 -3.9375 C 7.21875 -3.570312 7.390625 -3.085938 7.390625 -2.484375 C 7.390625 -1.898438 7.269531 -1.421875 7.03125 -1.046875 C 6.789062 -0.679688 6.457031 -0.414062 6.03125 -0.25 C 5.601562 -0.0820312 5.113281 0 4.5625 0 Z M 1.609375 -4.90625 L 4.46875 -4.90625 C 4.96875 -4.90625 5.375 -5.046875 5.6875 -5.328125 C 6 -5.617188 6.15625 -6.007812 6.15625 -6.5 C 6.15625 -7.007812 5.992188 -7.40625 5.671875 -7.6875 C 5.347656 -7.96875 4.878906 -8.109375 4.265625 -8.109375 L 1.609375 -8.109375 Z M 1.609375 -0.71875 L 4.390625 -0.71875 C 5.023438 -0.71875 5.539062 -0.851562 5.9375 -1.125 C 6.34375 -1.40625 6.546875 -1.882812 6.546875 -2.5625 C 6.546875 -3.113281 6.359375 -3.539062 5.984375 -3.84375 C 5.617188 -4.15625 5.128906 -4.3125 4.515625 -4.3125 L 1.609375 -4.3125 Z M 1.609375 -0.71875 "/></g></g></g><g fill="#201f25" fill-opacity="1"><g transform="translate(167.505112, 172.850955)"><g><path d="M 0.078125 0 L 3.40625 -8.828125 L 4.3125 -8.828125 L 7.671875 0 L 6.8125 0 L 5.796875 -2.71875 L 1.9375 -2.71875 L 0.921875 0 Z M 2.15625 -3.390625 L 5.578125 -3.390625 L 3.875 -7.96875 L 3.84375 -7.96875 Z M 2.15625 -3.390625 "/></g></g></g><g fill="#201f25" fill-opacity="1"><g transform="translate(175.243219, 172.850955)"><g><path d="M 4.421875 0.140625 C 3.554688 0.140625 2.820312 -0.0546875 2.21875 -0.453125 C 1.625 -0.847656 1.171875 -1.390625 0.859375 -2.078125 C 0.554688 -2.765625 0.40625 -3.539062 0.40625 -4.40625 C 0.40625 -5.25 0.5625 -6.015625 0.875 -6.703125 C 1.195312 -7.398438 1.664062 -7.953125 2.28125 -8.359375 C 2.894531 -8.765625 3.65625 -8.96875 4.5625 -8.96875 C 5.21875 -8.96875 5.796875 -8.851562 6.296875 -8.625 C 6.796875 -8.394531 7.203125 -8.070312 7.515625 -7.65625 C 7.828125 -7.238281 8.03125 -6.753906 8.125 -6.203125 L 7.265625 -6.203125 C 7.191406 -6.585938 7.035156 -6.9375 6.796875 -7.25 C 6.554688 -7.570312 6.25 -7.820312 5.875 -8 C 5.5 -8.175781 5.0625 -8.265625 4.5625 -8.265625 C 3.8125 -8.265625 3.191406 -8.085938 2.703125 -7.734375 C 2.210938 -7.378906 1.847656 -6.910156 1.609375 -6.328125 C 1.378906 -5.742188 1.265625 -5.101562 1.265625 -4.40625 C 1.265625 -3.6875 1.378906 -3.035156 1.609375 -2.453125 C 1.835938 -1.878906 2.191406 -1.421875 2.671875 -1.078125 C 3.148438 -0.734375 3.757812 -0.5625 4.5 -0.5625 C 5.09375 -0.5625 5.601562 -0.695312 6.03125 -0.96875 C 6.46875 -1.238281 6.800781 -1.613281 7.03125 -2.09375 C 7.269531 -2.582031 7.390625 -3.148438 7.390625 -3.796875 L 4.671875 -3.796875 L 4.671875 -4.453125 L 8.265625 -4.453125 L 8.265625 0 L 7.625 0 L 7.53125 -2.03125 L 7.5 -2.03125 C 7.394531 -1.632812 7.207031 -1.269531 6.9375 -0.9375 C 6.675781 -0.601562 6.332031 -0.335938 5.90625 -0.140625 C 5.488281 0.046875 4.992188 0.140625 4.421875 0.140625 Z M 4.421875 0.140625 "/></g></g></g><g fill="#201f25" fill-opacity="1"><g transform="translate(184.141426, 172.850955)"><g><path d="M 0.078125 0 L 3.40625 -8.828125 L 4.3125 -8.828125 L 7.671875 0 L 6.8125 0 L 5.796875 -2.71875 L 1.9375 -2.71875 L 0.921875 0 Z M 2.15625 -3.390625 L 5.578125 -3.390625 L 3.875 -7.96875 L 3.84375 -7.96875 Z M 2.15625 -3.390625 "/></g></g></g><g fill="#201f25" fill-opacity="1"><g transform="translate(191.879533, 172.850955)"><g><path d="M 0.796875 0 L 0.796875 -8.828125 L 1.640625 -8.828125 L 1.640625 0 Z M 0.796875 0 "/></g></g></g><g fill="#201f25" fill-opacity="1"><g transform="translate(194.298461, 172.850955)"><g/></g></g><g fill="#201f25" fill-opacity="1"><g transform="translate(196.951882, 172.850955)"><g><path d="M 0.75 0 L 0.75 -8.828125 L 1.859375 -8.828125 L 4.9375 -1.203125 L 4.96875 -1.203125 L 8.046875 -8.828125 L 9.15625 -8.828125 L 9.15625 0 L 8.34375 0 L 8.34375 -7.546875 L 8.3125 -7.546875 L 5.3125 0 L 4.609375 0 L 1.609375 -7.546875 L 1.578125 -7.546875 L 1.578125 0 Z M 0.75 0 "/></g></g></g><g fill="#201f25" fill-opacity="1"><g transform="translate(206.862086, 172.850955)"><g><path d="M 0.078125 0 L 3.40625 -8.828125 L 4.3125 -8.828125 L 7.671875 0 L 6.8125 0 L 5.796875 -2.71875 L 1.9375 -2.71875 L 0.921875 0 Z M 2.15625 -3.390625 L 5.578125 -3.390625 L 3.875 -7.96875 L 3.84375 -7.96875 Z M 2.15625 -3.390625 "/></g></g></g><g fill="#201f25" fill-opacity="1"><g transform="translate(214.600193, 172.850955)"><g><path d="M 4.484375 0.140625 C 3.640625 0.140625 2.910156 -0.046875 2.296875 -0.421875 C 1.691406 -0.804688 1.222656 -1.34375 0.890625 -2.03125 C 0.566406 -2.71875 0.40625 -3.507812 0.40625 -4.40625 C 0.40625 -5.289062 0.566406 -6.078125 0.890625 -6.765625 C 1.222656 -7.453125 1.695312 -7.988281 2.3125 -8.375 C 2.925781 -8.769531 3.65625 -8.96875 4.5 -8.96875 C 5.15625 -8.96875 5.722656 -8.84375 6.203125 -8.59375 C 6.691406 -8.34375 7.085938 -8 7.390625 -7.5625 C 7.691406 -7.125 7.882812 -6.617188 7.96875 -6.046875 L 7.125 -6.046875 C 7.0625 -6.460938 6.910156 -6.835938 6.671875 -7.171875 C 6.441406 -7.515625 6.140625 -7.78125 5.765625 -7.96875 C 5.398438 -8.164062 4.972656 -8.265625 4.484375 -8.265625 C 3.785156 -8.265625 3.191406 -8.097656 2.703125 -7.765625 C 2.222656 -7.429688 1.863281 -6.972656 1.625 -6.390625 C 1.382812 -5.804688 1.265625 -5.144531 1.265625 -4.40625 C 1.265625 -3.65625 1.382812 -2.992188 1.625 -2.421875 C 1.875 -1.847656 2.238281 -1.394531 2.71875 -1.0625 C 3.195312 -0.726562 3.773438 -0.5625 4.453125 -0.5625 C 4.992188 -0.5625 5.457031 -0.675781 5.84375 -0.90625 C 6.238281 -1.144531 6.550781 -1.457031 6.78125 -1.84375 C 7.019531 -2.238281 7.164062 -2.660156 7.21875 -3.109375 L 8.078125 -3.109375 C 8.003906 -2.460938 7.8125 -1.894531 7.5 -1.40625 C 7.1875 -0.914062 6.769531 -0.535156 6.25 -0.265625 C 5.738281 0.00390625 5.148438 0.140625 4.484375 0.140625 Z M 4.484375 0.140625 "/></g></g></g><g fill="#201f25" fill-opacity="1"><g transform="translate(223.00474, 172.850955)"><g><path d="M 0.078125 0 L 3.40625 -8.828125 L 4.3125 -8.828125 L 7.671875 0 L 6.8125 0 L 5.796875 -2.71875 L 1.9375 -2.71875 L 0.921875 0 Z M 2.15625 -3.390625 L 5.578125 -3.390625 L 3.875 -7.96875 L 3.84375 -7.96875 Z M 2.15625 -3.390625 "/></g></g></g><g fill="#201f25" fill-opacity="1"><g transform="translate(230.742847, 172.850955)"><g><path d="M 0.75 0 L 0.75 -8.828125 L 1.859375 -8.828125 L 4.9375 -1.203125 L 4.96875 -1.203125 L 8.046875 -8.828125 L 9.15625 -8.828125 L 9.15625 0 L 8.34375 0 L 8.34375 -7.546875 L 8.3125 -7.546875 L 5.3125 0 L 4.609375 0 L 1.609375 -7.546875 L 1.578125 -7.546875 L 1.578125 0 Z M 0.75 0 "/></g></g></g><g fill="#201f25" fill-opacity="1"><g transform="translate(240.653051, 172.850955)"><g/></g></g><g fill="#201f25" fill-opacity="1"><g transform="translate(243.306472, 172.850955)"><g><path d="M 0.75 0 L 0.75 -8.828125 L 4.171875 -8.828125 C 4.742188 -8.828125 5.238281 -8.738281 5.65625 -8.5625 C 6.082031 -8.394531 6.414062 -8.117188 6.65625 -7.734375 C 6.894531 -7.359375 7.015625 -6.863281 7.015625 -6.25 C 7.015625 -5.625 6.894531 -5.125 6.65625 -4.75 C 6.414062 -4.375 6.082031 -4.097656 5.65625 -3.921875 C 5.238281 -3.753906 4.742188 -3.671875 4.171875 -3.671875 L 1.609375 -3.671875 L 1.609375 0 Z M 1.609375 -4.375 L 4.140625 -4.375 C 4.765625 -4.375 5.253906 -4.519531 5.609375 -4.8125 C 5.972656 -5.113281 6.15625 -5.59375 6.15625 -6.25 C 6.15625 -6.90625 5.972656 -7.378906 5.609375 -7.671875 C 5.253906 -7.960938 4.765625 -8.109375 4.140625 -8.109375 L 1.609375 -8.109375 Z M 1.609375 -4.375 "/></g></g></g><g fill="#201f25" fill-opacity="1"><g transform="translate(250.575605, 172.850955)"><g><path d="M 0.796875 0 L 0.796875 -8.828125 L 1.640625 -8.828125 L 1.640625 0 Z M 0.796875 0 "/></g></g></g><g fill="#201f25" fill-opacity="1"><g transform="translate(252.994534, 172.850955)"><g><path d="M 0.75 0 L 0.75 -8.828125 L 1.609375 -8.828125 L 1.609375 -0.71875 L 6.375 -0.71875 L 6.375 0 Z M 0.75 0 "/></g></g></g><g fill="#201f25" fill-opacity="1"><g transform="translate(259.646592, 172.850955)"><g><path d="M 0.796875 0 L 0.796875 -8.828125 L 1.640625 -8.828125 L 1.640625 0 Z M 0.796875 0 "/></g></g></g><g fill="#201f25" fill-opacity="1"><g transform="translate(262.06552, 172.850955)"><g><path d="M 0.75 0 L 0.75 -8.828125 L 1.609375 -8.828125 L 1.609375 -4.984375 L 6.59375 -4.984375 L 6.59375 -8.828125 L 7.4375 -8.828125 L 7.4375 0 L 6.59375 0 L 6.59375 -4.28125 L 1.609375 -4.28125 L 1.609375 0 Z M 0.75 0 "/></g></g></g><g fill="#201f25" fill-opacity="1"><g transform="translate(270.260262, 172.850955)"><g><path d="M 0.078125 0 L 3.40625 -8.828125 L 4.3125 -8.828125 L 7.671875 0 L 6.8125 0 L 5.796875 -2.71875 L 1.9375 -2.71875 L 0.921875 0 Z M 2.15625 -3.390625 L 5.578125 -3.390625 L 3.875 -7.96875 L 3.84375 -7.96875 Z M 2.15625 -3.390625 "/></g></g></g><g fill="#201f25" fill-opacity="1"><g transform="translate(277.998368, 172.850955)"><g><path d="M 0.75 0 L 0.75 -8.828125 L 1.671875 -8.828125 L 6.671875 -1.3125 L 6.703125 -1.3125 L 6.703125 -8.828125 L 7.546875 -8.828125 L 7.546875 0 L 6.625 0 L 1.625 -7.5 L 1.609375 -7.5 L 1.609375 0 Z M 0.75 0 "/></g></g></g><g fill="#201f25" fill-opacity="1"><g transform="translate(286.304187, 172.850955)"><g/></g></g><g fill="#201f25" fill-opacity="1"><g transform="translate(288.957608, 172.850955)"><g><path d="M 0.75 0 L 0.75 -8.828125 L 4.171875 -8.828125 C 4.742188 -8.828125 5.238281 -8.738281 5.65625 -8.5625 C 6.082031 -8.394531 6.414062 -8.117188 6.65625 -7.734375 C 6.894531 -7.359375 7.015625 -6.863281 7.015625 -6.25 C 7.015625 -5.625 6.894531 -5.125 6.65625 -4.75 C 6.414062 -4.375 6.082031 -4.097656 5.65625 -3.921875 C 5.238281 -3.753906 4.742188 -3.671875 4.171875 -3.671875 L 1.609375 -3.671875 L 1.609375 0 Z M 1.609375 -4.375 L 4.140625 -4.375 C 4.765625 -4.375 5.253906 -4.519531 5.609375 -4.8125 C 5.972656 -5.113281 6.15625 -5.59375 6.15625 -6.25 C 6.15625 -6.90625 5.972656 -7.378906 5.609375 -7.671875 C 5.253906 -7.960938 4.765625 -8.109375 4.140625 -8.109375 L 1.609375 -8.109375 Z M 1.609375 -4.375 "/></g></g></g><g fill="#201f25" fill-opacity="1"><g transform="translate(296.226742, 172.850955)"><g><path d="M 0.75 0 L 0.75 -8.828125 L 4.375 -8.828125 C 5.226562 -8.828125 5.90625 -8.625 6.40625 -8.21875 C 6.914062 -7.8125 7.171875 -7.179688 7.171875 -6.328125 C 7.171875 -5.703125 7 -5.203125 6.65625 -4.828125 C 6.3125 -4.453125 5.847656 -4.203125 5.265625 -4.078125 L 5.265625 -4.0625 C 5.628906 -4.007812 5.925781 -3.878906 6.15625 -3.671875 C 6.382812 -3.472656 6.554688 -3.226562 6.671875 -2.9375 C 6.785156 -2.644531 6.867188 -2.335938 6.921875 -2.015625 C 6.984375 -1.703125 7.023438 -1.398438 7.046875 -1.109375 C 7.066406 -0.828125 7.097656 -0.59375 7.140625 -0.40625 C 7.179688 -0.21875 7.238281 -0.113281 7.3125 -0.09375 L 7.3125 0 L 6.421875 0 C 6.347656 -0.0625 6.296875 -0.191406 6.265625 -0.390625 C 6.234375 -0.597656 6.207031 -0.84375 6.1875 -1.125 C 6.164062 -1.40625 6.125 -1.691406 6.0625 -1.984375 C 6.007812 -2.285156 5.921875 -2.5625 5.796875 -2.8125 C 5.671875 -3.070312 5.488281 -3.28125 5.25 -3.4375 C 5.007812 -3.601562 4.691406 -3.6875 4.296875 -3.6875 L 1.609375 -3.6875 L 1.609375 0 Z M 1.609375 -4.390625 L 4.09375 -4.390625 C 4.75 -4.390625 5.28125 -4.539062 5.6875 -4.84375 C 6.101562 -5.15625 6.3125 -5.628906 6.3125 -6.265625 C 6.3125 -6.921875 6.125 -7.390625 5.75 -7.671875 C 5.375 -7.960938 4.820312 -8.109375 4.09375 -8.109375 L 1.609375 -8.109375 Z M 1.609375 -4.390625 "/></g></g></g><g fill="#201f25" fill-opacity="1"><g transform="translate(303.903147, 172.850955)"><g><path d="M 0.75 0 L 0.75 -8.828125 L 6.78125 -8.828125 L 6.78125 -8.109375 L 1.609375 -8.109375 L 1.609375 -5.015625 L 6.296875 -5.015625 L 6.296875 -4.296875 L 1.609375 -4.296875 L 1.609375 -0.71875 L 6.890625 -0.71875 L 6.890625 0 Z M 0.75 0 "/></g></g></g><g fill="#201f25" fill-opacity="1"><g transform="translate(311.233982, 172.850955)"><g><path d="M 0.75 0 L 0.75 -8.828125 L 1.859375 -8.828125 L 4.9375 -1.203125 L 4.96875 -1.203125 L 8.046875 -8.828125 L 9.15625 -8.828125 L 9.15625 0 L 8.34375 0 L 8.34375 -7.546875 L 8.3125 -7.546875 L 5.3125 0 L 4.609375 0 L 1.609375 -7.546875 L 1.578125 -7.546875 L 1.578125 0 Z M 0.75 0 "/></g></g></g><g fill="#201f25" fill-opacity="1"><g transform="translate(321.144187, 172.850955)"><g><path d="M 0.796875 0 L 0.796875 -8.828125 L 1.640625 -8.828125 L 1.640625 0 Z M 0.796875 0 "/></g></g></g><g fill="#201f25" fill-opacity="1"><g transform="translate(323.563115, 172.850955)"><g><path d="M 3.953125 0.140625 C 2.785156 0.140625 1.941406 -0.132812 1.421875 -0.6875 C 0.898438 -1.25 0.640625 -2.050781 0.640625 -3.09375 L 0.640625 -8.828125 L 1.5 -8.828125 L 1.5 -3.09375 C 1.5 -2.226562 1.703125 -1.585938 2.109375 -1.171875 C 2.515625 -0.765625 3.128906 -0.5625 3.953125 -0.5625 C 4.773438 -0.5625 5.382812 -0.765625 5.78125 -1.171875 C 6.1875 -1.585938 6.390625 -2.226562 6.390625 -3.09375 L 6.390625 -8.828125 L 7.25 -8.828125 L 7.25 -3.09375 C 7.25 -2.050781 6.988281 -1.25 6.46875 -0.6875 C 5.945312 -0.132812 5.109375 0.140625 3.953125 0.140625 Z M 3.953125 0.140625 "/></g></g></g><g fill="#201f25" fill-opacity="1"><g transform="translate(331.461663, 172.850955)"><g><path d="M 0.75 0 L 0.75 -8.828125 L 1.859375 -8.828125 L 4.9375 -1.203125 L 4.96875 -1.203125 L 8.046875 -8.828125 L 9.15625 -8.828125 L 9.15625 0 L 8.34375 0 L 8.34375 -7.546875 L 8.3125 -7.546875 L 5.3125 0 L 4.609375 0 L 1.609375 -7.546875 L 1.578125 -7.546875 L 1.578125 0 Z M 0.75 0 "/></g></g></g><g fill="#201f25" fill-opacity="1"><g transform="translate(341.371879, 172.850955)"><g/></g></g><g fill="#201f25" fill-opacity="1"><g transform="translate(344.025288, 172.850955)"><g><path d="M 3.921875 0.140625 C 3.242188 0.140625 2.632812 0.03125 2.09375 -0.1875 C 1.550781 -0.40625 1.113281 -0.734375 0.78125 -1.171875 C 0.457031 -1.617188 0.28125 -2.175781 0.25 -2.84375 L 1.09375 -2.84375 C 1.132812 -2.101562 1.410156 -1.535156 1.921875 -1.140625 C 2.441406 -0.753906 3.109375 -0.5625 3.921875 -0.5625 C 4.671875 -0.5625 5.226562 -0.734375 5.59375 -1.078125 C 5.96875 -1.429688 6.160156 -1.847656 6.171875 -2.328125 C 6.171875 -2.765625 6.054688 -3.109375 5.828125 -3.359375 C 5.609375 -3.609375 5.285156 -3.800781 4.859375 -3.9375 C 4.441406 -4.070312 3.925781 -4.195312 3.3125 -4.3125 C 2.757812 -4.425781 2.273438 -4.570312 1.859375 -4.75 C 1.453125 -4.9375 1.132812 -5.1875 0.90625 -5.5 C 0.675781 -5.8125 0.5625 -6.21875 0.5625 -6.71875 C 0.5625 -7.226562 0.691406 -7.648438 0.953125 -7.984375 C 1.210938 -8.316406 1.566406 -8.5625 2.015625 -8.71875 C 2.460938 -8.882812 2.96875 -8.96875 3.53125 -8.96875 C 4.132812 -8.96875 4.671875 -8.867188 5.140625 -8.671875 C 5.609375 -8.472656 5.984375 -8.175781 6.265625 -7.78125 C 6.546875 -7.394531 6.703125 -6.925781 6.734375 -6.375 L 5.890625 -6.375 C 5.828125 -6.957031 5.597656 -7.414062 5.203125 -7.75 C 4.816406 -8.09375 4.257812 -8.265625 3.53125 -8.265625 C 2.90625 -8.265625 2.394531 -8.128906 2 -7.859375 C 1.613281 -7.597656 1.421875 -7.226562 1.421875 -6.75 C 1.421875 -6.363281 1.519531 -6.054688 1.71875 -5.828125 C 1.914062 -5.609375 2.195312 -5.4375 2.5625 -5.3125 C 2.925781 -5.195312 3.367188 -5.09375 3.890625 -5 C 4.535156 -4.875 5.09375 -4.710938 5.5625 -4.515625 C 6.03125 -4.316406 6.390625 -4.046875 6.640625 -3.703125 C 6.898438 -3.367188 7.03125 -2.925781 7.03125 -2.375 C 7.03125 -1.90625 6.90625 -1.476562 6.65625 -1.09375 C 6.414062 -0.707031 6.0625 -0.40625 5.59375 -0.1875 C 5.132812 0.03125 4.578125 0.140625 3.921875 0.140625 Z M 3.921875 0.140625 "/></g></g></g><g fill="#201f25" fill-opacity="1"><g transform="translate(351.442501, 172.850955)"><g><path d="M 3.25 0 L 3.25 -8.109375 L 0.234375 -8.109375 L 0.234375 -8.828125 L 7.09375 -8.828125 L 7.09375 -8.109375 L 4.09375 -8.109375 L 4.09375 0 Z M 3.25 0 "/></g></g></g><g fill="#201f25" fill-opacity="1"><g transform="translate(358.773337, 172.850955)"><g><path d="M 3.265625 0 L 3.265625 -3.53125 L 0.078125 -8.828125 L 1.015625 -8.828125 L 3.671875 -4.328125 L 3.6875 -4.328125 L 6.375 -8.828125 L 7.3125 -8.828125 L 4.109375 -3.53125 L 4.109375 0 Z M 3.265625 0 "/></g></g></g><g fill="#201f25" fill-opacity="1"><g transform="translate(366.153548, 172.850955)"><g><path d="M 0.75 0 L 0.75 -8.828125 L 1.609375 -8.828125 L 1.609375 -0.71875 L 6.375 -0.71875 L 6.375 0 Z M 0.75 0 "/></g></g></g><g fill="#201f25" fill-opacity="1"><g transform="translate(372.805618, 172.850955)"><g><path d="M 0.75 0 L 0.75 -8.828125 L 6.78125 -8.828125 L 6.78125 -8.109375 L 1.609375 -8.109375 L 1.609375 -5.015625 L 6.296875 -5.015625 L 6.296875 -4.296875 L 1.609375 -4.296875 L 1.609375 -0.71875 L 6.890625 -0.71875 L 6.890625 0 Z M 0.75 0 "/></g></g></g><g fill="#1f2122" fill-opacity="1"><g transform="translate(413.000253, 163.362556)"><g><path d="M 115.59375 -31.15625 L 115.59375 -72.15625 L 82.65625 -6.140625 C 82.4375 -5.492188 81.953125 -5.171875 81.203125 -5.171875 L 61.34375 -5.171875 C 60.488281 -5.171875 59.953125 -5.492188 59.734375 -6.140625 L 24.703125 -73.9375 L 24.703125 -1.453125 C 24.703125 -0.484375 24.109375 0 22.921875 0 L 1.609375 0 C 0.535156 0 0 -0.484375 0 -1.453125 L 0 -127.703125 C 0 -128.671875 0.535156 -129.15625 1.609375 -129.15625 L 23.25 -129.15625 C 24.101562 -129.15625 24.640625 -128.832031 24.859375 -128.1875 L 71.1875 -33.578125 L 115.265625 -128.1875 C 115.691406 -128.832031 116.285156 -129.15625 117.046875 -129.15625 L 138.359375 -129.15625 C 139.535156 -129.15625 140.125 -128.671875 140.125 -127.703125 L 140.125 -31.15625 Z M 115.59375 -31.15625 "/></g></g></g><g clip-path="url(#a2cb92c0fd)"><path fill="#cea849" d="M 534.863281 75.859375 L 559.671875 75.859375 L 559.671875 132.550781 L 534.863281 132.550781 Z M 534.863281 75.859375 " fill-opacity="1" fill-rule="nonzero"/></g><g fill="#000000" fill-opacity="1"><g transform="translate(524.937578, 166.806233)"><g><path d="M 19.109375 -32.171875 C 24.566406 -32.171875 28.78125 -30.773438 31.75 -27.984375 C 34.726562 -25.191406 36.21875 -21.132812 36.21875 -15.8125 C 36.21875 -10.476562 34.726562 -6.414062 31.75 -3.625 C 28.78125 -0.84375 24.566406 0.546875 19.109375 0.546875 C 13.660156 0.546875 9.457031 -0.835938 6.5 -3.609375 C 3.539062 -6.378906 2.0625 -10.445312 2.0625 -15.8125 C 2.0625 -21.164062 3.539062 -25.226562 6.5 -28 C 9.457031 -30.78125 13.660156 -32.171875 19.109375 -32.171875 Z M 19.109375 -24.578125 C 16.941406 -24.578125 15.289062 -23.921875 14.15625 -22.609375 C 13.019531 -21.296875 12.453125 -19.519531 12.453125 -17.28125 L 12.453125 -14.34375 C 12.453125 -12.101562 13.019531 -10.320312 14.15625 -9 C 15.289062 -7.6875 16.941406 -7.03125 19.109375 -7.03125 C 21.285156 -7.03125 22.945312 -7.6875 24.09375 -9 C 25.25 -10.320312 25.828125 -12.101562 25.828125 -14.34375 L 25.828125 -17.28125 C 25.828125 -19.519531 25.25 -21.296875 24.09375 -22.609375 C 22.945312 -23.921875 21.285156 -24.578125 19.109375 -24.578125 Z M 19.109375 -24.578125 "/></g></g></g><g fill="#cea849" fill-opacity="1"><g transform="translate(563.22001, 166.806233)"><g><path d="M 26.015625 0 L 12.734375 -15.34375 L 12.734375 0 L 3.40625 0 L 3.40625 -31.609375 L 12.265625 -31.609375 L 25.546875 -16.03125 L 25.546875 -31.609375 L 34.875 -31.609375 L 34.875 0 Z M 26.015625 0 "/></g></g></g><g fill="#cea849" fill-opacity="1"><g transform="translate(601.499231, 166.806233)"><g><path d="M 16.6875 -32.171875 C 20.726562 -32.171875 24.050781 -31.347656 26.65625 -29.703125 C 29.257812 -28.066406 30.59375 -25.640625 30.65625 -22.421875 L 30.65625 -21.875 L 21.140625 -21.875 L 21.140625 -22.0625 C 21.140625 -22.976562 20.800781 -23.742188 20.125 -24.359375 C 19.445312 -24.972656 18.421875 -25.28125 17.046875 -25.28125 C 15.703125 -25.28125 14.664062 -25.078125 13.9375 -24.671875 C 13.21875 -24.273438 12.859375 -23.785156 12.859375 -23.203125 C 12.859375 -22.378906 13.347656 -21.765625 14.328125 -21.359375 C 15.316406 -20.960938 16.898438 -20.550781 19.078125 -20.125 C 21.617188 -19.601562 23.707031 -19.054688 25.34375 -18.484375 C 26.976562 -17.921875 28.410156 -16.992188 29.640625 -15.703125 C 30.867188 -14.421875 31.5 -12.679688 31.53125 -10.484375 C 31.53125 -6.742188 30.265625 -3.96875 27.734375 -2.15625 C 25.203125 -0.351562 21.820312 0.546875 17.59375 0.546875 C 12.664062 0.546875 8.828125 -0.273438 6.078125 -1.921875 C 3.335938 -3.578125 1.96875 -6.503906 1.96875 -10.703125 L 11.578125 -10.703125 C 11.578125 -9.109375 11.988281 -8.039062 12.8125 -7.5 C 13.644531 -6.96875 14.9375 -6.703125 16.6875 -6.703125 C 17.96875 -6.703125 19.03125 -6.835938 19.875 -7.109375 C 20.71875 -7.390625 21.140625 -7.960938 21.140625 -8.828125 C 21.140625 -9.585938 20.671875 -10.160156 19.734375 -10.546875 C 18.796875 -10.929688 17.273438 -11.335938 15.171875 -11.765625 C 12.585938 -12.316406 10.453125 -12.890625 8.765625 -13.484375 C 7.085938 -14.085938 5.617188 -15.078125 4.359375 -16.453125 C 3.109375 -17.828125 2.484375 -19.695312 2.484375 -22.0625 C 2.484375 -25.519531 3.820312 -28.066406 6.5 -29.703125 C 9.175781 -31.347656 12.570312 -32.171875 16.6875 -32.171875 Z M 16.6875 -32.171875 "/></g></g></g><g fill="#cea849" fill-opacity="1"><g transform="translate(634.677619, 166.806233)"><g><path d="M 21.59375 -23.53125 L 21.59375 0 L 11.4375 0 L 11.4375 -23.53125 L 1.0625 -23.53125 L 1.0625 -31.609375 L 31.9375 -31.609375 L 31.9375 -23.53125 Z M 21.59375 -23.53125 "/></g></g></g><g fill="#cea849" fill-opacity="1"><g transform="translate(667.856006, 166.806233)"><g><path d="M 3.40625 -31.609375 L 30.75 -31.609375 L 30.75 -24.03125 L 13.5625 -24.03125 L 13.5625 -19.671875 L 28.265625 -19.671875 L 28.265625 -12.40625 L 13.5625 -12.40625 L 13.5625 -7.578125 L 31.0625 -7.578125 L 31.0625 0 L 3.40625 0 Z M 3.40625 -31.609375 "/></g></g></g><g fill="#cea849" fill-opacity="1"><g transform="translate(701.034394, 166.806233)"><g><path d="M 33.40625 -21.921875 C 33.40625 -19.992188 32.882812 -18.25 31.84375 -16.6875 C 30.800781 -15.125 29.285156 -13.972656 27.296875 -13.234375 L 34.328125 0 L 22.9375 0 L 17.328125 -11.53125 L 13.5625 -11.53125 L 13.5625 0 L 3.40625 0 L 3.40625 -31.609375 L 22.75 -31.609375 C 25.007812 -31.609375 26.941406 -31.171875 28.546875 -30.296875 C 30.160156 -29.429688 31.375 -28.253906 32.1875 -26.765625 C 33 -25.273438 33.40625 -23.660156 33.40625 -21.921875 Z M 23.0625 -21.5 C 23.0625 -22.332031 22.785156 -23.023438 22.234375 -23.578125 C 21.691406 -24.128906 21.019531 -24.40625 20.21875 -24.40625 L 13.5625 -24.40625 L 13.5625 -18.5625 L 20.21875 -18.5625 C 21.019531 -18.5625 21.691406 -18.84375 22.234375 -19.40625 C 22.785156 -19.976562 23.0625 -20.675781 23.0625 -21.5 Z M 23.0625 -21.5 "/></g></g></g><g fill="#cea849" fill-opacity="1"><g transform="translate(560.69459, 131.819379)"><g><path d="M 4.5625 -22.109375 L 15.90625 -7.0625 L 15.96875 -7.0625 L 15.96875 -21.53125 L 20.171875 -21.53125 L 20.171875 0.421875 L 17.140625 0.421875 L 5.796875 -14.625 L 5.734375 -14.625 L 5.734375 0 L 1.546875 0 L 1.546875 -22.109375 Z M 4.5625 -22.109375 "/></g></g></g><g fill="#cea849" fill-opacity="1"><g transform="translate(590.941424, 131.819379)"><g><path d="M 12.875 -21.53125 L 12.875 -17.875 L 8.546875 -17.875 L 8.546875 0 L 4.34375 0 L 4.34375 -17.875 L 0 -17.875 L 0 -21.53125 Z M 12.875 -21.53125 "/></g></g></g><g fill="#cea849" fill-opacity="1"><g transform="translate(612.392064, 131.819379)"><g><path d="M 12.6875 -21.53125 L 12.6875 -17.875 L 5.734375 -17.875 L 5.734375 -13.140625 L 12.421875 -13.140625 L 12.421875 -9.484375 L 5.734375 -9.484375 L 5.734375 -3.65625 L 12.6875 -3.65625 L 12.6875 0 L 1.546875 0 L 1.546875 -21.53125 Z M 12.6875 -21.53125 "/></g></g></g><g fill="#cea849" fill-opacity="1"><g transform="translate(634.899398, 131.819379)"><g><path d="M 7.34375 -21.53125 C 9.601562 -21.53125 11.347656 -20.972656 12.578125 -19.859375 C 13.804688 -18.742188 14.421875 -17.140625 14.421875 -15.046875 C 14.421875 -13.523438 14.003906 -12.195312 13.171875 -11.0625 C 12.347656 -9.9375 11.300781 -9.273438 10.03125 -9.078125 L 16.109375 0 L 11.03125 0 L 5.796875 -8.6875 L 5.734375 -8.6875 L 5.734375 0 L 1.546875 0 L 1.546875 -21.53125 Z M 5.734375 -11.625 L 6.203125 -11.625 C 7.648438 -11.625 8.679688 -11.890625 9.296875 -12.421875 C 9.910156 -12.953125 10.21875 -13.789062 10.21875 -14.9375 C 10.21875 -16.0625 9.910156 -16.867188 9.296875 -17.359375 C 8.691406 -17.859375 7.675781 -18.109375 6.25 -18.109375 L 5.734375 -18.109375 Z M 5.734375 -11.625 "/></g></g></g><g fill="#cea849" fill-opacity="1"><g transform="translate(659.405858, 131.819379)"><g><path d="M 5.734375 -21.53125 L 5.734375 0 L 1.546875 0 L 1.546875 -21.53125 Z M 5.734375 -21.53125 "/></g></g></g><g fill="#cea849" fill-opacity="1"><g transform="translate(675.230369, 131.819379)"><g><path d="M 0.515625 -10.796875 C 0.515625 -12.960938 0.96875 -14.898438 1.875 -16.609375 C 2.78125 -18.328125 4.046875 -19.671875 5.671875 -20.640625 C 7.296875 -21.617188 9.128906 -22.109375 11.171875 -22.109375 C 13.242188 -22.109375 15.097656 -21.609375 16.734375 -20.609375 C 18.367188 -19.609375 19.625 -18.242188 20.5 -16.515625 C 21.382812 -14.796875 21.828125 -12.890625 21.828125 -10.796875 C 21.828125 -8.609375 21.375 -6.644531 20.46875 -4.90625 C 19.5625 -3.175781 18.300781 -1.828125 16.6875 -0.859375 C 15.082031 0.0976562 13.242188 0.578125 11.171875 0.578125 C 9.128906 0.578125 7.300781 0.109375 5.6875 -0.828125 C 4.082031 -1.773438 2.816406 -3.125 1.890625 -4.875 C 0.972656 -6.632812 0.515625 -8.609375 0.515625 -10.796875 Z M 11.140625 -17.96875 C 9.347656 -17.96875 7.851562 -17.28125 6.65625 -15.90625 C 5.457031 -14.539062 4.859375 -12.894531 4.859375 -10.96875 C 4.859375 -8.8125 5.421875 -7.039062 6.546875 -5.65625 C 7.679688 -4.269531 9.222656 -3.578125 11.171875 -3.578125 C 13.109375 -3.578125 14.644531 -4.269531 15.78125 -5.65625 C 16.914062 -7.039062 17.484375 -8.8125 17.484375 -10.96875 C 17.484375 -12.90625 16.878906 -14.554688 15.671875 -15.921875 C 14.472656 -17.285156 12.960938 -17.96875 11.140625 -17.96875 Z M 11.140625 -17.96875 "/></g></g></g><g fill="#cea849" fill-opacity="1"><g transform="translate(706.134059, 131.819379)"><g><path d="M 7.34375 -21.53125 C 9.601562 -21.53125 11.347656 -20.972656 12.578125 -19.859375 C 13.804688 -18.742188 14.421875 -17.140625 14.421875 -15.046875 C 14.421875 -13.523438 14.003906 -12.195312 13.171875 -11.0625 C 12.347656 -9.9375 11.300781 -9.273438 10.03125 -9.078125 L 16.109375 0 L 11.03125 0 L 5.796875 -8.6875 L 5.734375 -8.6875 L 5.734375 0 L 1.546875 0 L 1.546875 -21.53125 Z M 5.734375 -11.625 L 6.203125 -11.625 C 7.648438 -11.625 8.679688 -11.890625 9.296875 -12.421875 C 9.910156 -12.953125 10.21875 -13.789062 10.21875 -14.9375 C 10.21875 -16.0625 9.910156 -16.867188 9.296875 -17.359375 C 8.691406 -17.859375 7.675781 -18.109375 6.25 -18.109375 L 5.734375 -18.109375 Z M 5.734375 -11.625 "/></g></g></g></svg>